<svg width="2048" height="2048" viewBox="0 0 2048 2048" fill="none" xmlns="http://www.w3.org/2000/svg">
<circle cx="1024" cy="1024" r="805" fill="#F6F5F3"/>
<path d="M707.888 742.4C706.865 744.8 696.372 770.533 684.472 799.466C672.571 828.4 660.031 859.066 656.704 867.466C653.249 875.866 646.979 891.2 642.629 901.466C638.278 911.733 630.472 930.666 625.226 943.466C619.98 956.266 614.605 969.333 613.198 972.533C611.79 975.6 610.639 978.8 610.639 979.466C610.639 980.266 631.496 980.8 667.325 980.8H724.139L726.187 975.733C732.201 961.333 762.911 879.466 762.911 878C762.911 873.733 766.238 881.333 780.698 918.8C789.143 940.8 797.972 963.733 800.275 969.733L804.498 980.666L862.464 980.8C894.198 980.8 920.302 980.533 920.302 980.266C920.302 980 915.567 968.4 909.937 954.533C892.79 913.333 890.871 908.533 887.16 898.8C885.113 893.6 871.165 859.466 856.066 822.8C840.967 786.133 827.019 752.133 825.1 747.066L821.517 738.133H765.47H709.424L707.888 742.4Z" fill="black"/>
<path d="M1090.49 860.8V980.8H1147.43H1204.37V915.466V850.133L1225.23 850C1277.95 849.733 1315.7 850.266 1322.74 851.466C1368.67 859.6 1398.62 877.333 1422.67 910.8C1433.93 926.533 1445.07 952.266 1450.06 973.733L1451.59 980.8H1511.09H1570.59L1569.7 975.066C1560.36 913.066 1535.79 861.733 1495.61 820.133C1476.29 800.133 1457.73 786.533 1430.35 772.133C1396.31 754.266 1365.47 745.466 1325.29 742.133C1316.85 741.466 1260.55 740.8 1200.28 740.8H1090.49V860.8Z" fill="black"/>
<path d="M1454.28 1049.07C1453.77 1066.27 1443.79 1101.33 1433.93 1120.53C1420.5 1146.27 1397.59 1169.33 1372.64 1182.53C1362.4 1187.87 1344.87 1193.87 1330.03 1197.07C1317.11 1199.87 1313.14 1200 1260.68 1200.13H1205.01L1204.37 1122.27L1203.73 1044.27H1156.39C1130.41 1044.13 1104.82 1044.27 1099.7 1044.53L1090.49 1045.07L1090.74 1177.2L1091.13 1309.47L1196.06 1309.87C1319.92 1310.4 1337.45 1309.47 1371.36 1300.67C1401.94 1292.8 1435.72 1277.73 1459.01 1261.47C1505.33 1229.33 1540.14 1180.53 1558.69 1121.47C1566.88 1095.33 1574.94 1047.6 1571.49 1045.33C1570.98 1045.07 1545.26 1044.53 1514.42 1044.27C1483.58 1044 1457.48 1043.33 1456.45 1042.93C1454.79 1042.27 1454.41 1043.33 1454.28 1049.07Z" fill="black"/>
<path d="M582.358 1047.33C581.591 1049.2 577.368 1059.47 572.889 1070.13C568.411 1080.8 557.15 1108 547.937 1130.8C514.284 1213.07 505.071 1235.6 488.564 1275.47C481.142 1293.33 475 1308.4 475 1308.93C475 1309.47 502.511 1309.87 536.165 1309.73L597.202 1309.47L605.263 1288.13C616.396 1258.8 635.078 1210.8 642.756 1191.73L645.059 1186.13H764.701C859.008 1186.13 884.6 1186.53 885.368 1187.73C886.391 1189.47 890.102 1198.93 914.543 1261.47C921.325 1279.07 928.618 1297.2 930.538 1301.73L934.121 1310H995.157H1056.07L1055.17 1307.07C1054.15 1303.6 1033.03 1251.47 1021.13 1222.8C1016.53 1211.73 1004.5 1182.67 994.518 1158.13C984.409 1133.6 969.693 1097.87 961.888 1078.8L947.428 1044.13H889.59C857.856 1044.13 831.625 1044.53 831.369 1044.93C831.113 1045.33 833.8 1053.2 837.383 1062.53C840.966 1071.87 843.525 1080 843.013 1080.53C841.989 1081.47 687.414 1082.27 685.878 1081.33C685.494 1081.07 687.925 1073.47 691.38 1064.53C697.522 1048.53 698.546 1044.93 696.755 1044.67C696.115 1044.67 670.523 1044.4 639.685 1044.27L583.51 1043.87L582.358 1047.33Z" fill="black"/>
<path d="M421.028 951.722C448.613 942.983 467.443 952.268 493.033 953.748C549.366 957 623.653 954.071 681.269 954.304C724.878 954.48 769.19 955.104 812.536 955.604C814.759 955.628 816.086 956.587 817.094 956.599C826.584 956.711 842.499 955.843 851.914 955.97C871.718 956.234 906.177 956.085 924.316 956.983C932.019 957.364 939.919 957.522 942.913 959.803C945.728 959.919 947.264 957.858 947.999 957.746C948.007 957.748 948.016 957.75 948.024 957.752C950.391 957.404 956.368 958.849 957.687 958.759C957.885 958.745 956.67 957.253 959.871 957.703C960.156 957.742 959.892 958.757 962.587 958.771C963.288 958.775 972.301 957.219 974.876 957.124C983.447 956.814 1003.92 958.036 1014.16 958.015C1015.73 958.015 1016.63 957.421 1018.29 957.41C1019.14 957.404 1020.42 958.049 1020.69 958.045C1021.84 958.022 1026.88 955.096 1025.07 960.871C1030.33 960.505 1028.78 958.596 1028.9 957.356C1034.61 957.176 1037.36 959.896 1038.85 957.014C1066.92 957.362 1094.99 957.71 1123.06 958.057C1123.07 957.587 1123.08 957.117 1123.09 956.648C1131.36 958.525 1134.2 955.35 1138.92 958.076C1141.83 957.476 1144.75 956.875 1147.66 956.275C1222.51 958.124 1297.19 955.926 1371.2 955.933C1374.33 955.933 1375.11 956.933 1380.26 956.94C1385.95 956.947 1393.95 955.785 1401.44 955.799C1408.02 955.81 1417.72 956.756 1425.05 956.904C1426.7 956.936 1427.9 956.302 1428.09 956.306C1429.18 956.33 1429.24 957.333 1430.3 957.362C1431.57 957.393 1433.11 956.651 1434.58 956.696C1440.06 956.862 1446.04 956.606 1446.74 956.623C1450.09 956.718 1450.83 957.699 1451.1 957.71C1454.82 957.829 1453.43 956.944 1454.36 956.995C1459.17 957.267 1462.57 959.476 1469.15 957.356C1468.98 958.175 1468.8 958.995 1468.62 959.815C1473.66 960.276 1470.33 958.098 1471.36 957.703C1471.78 957.557 1482.63 957.823 1483.47 957.862C1486.38 958.003 1486.46 959.092 1486.71 959.107C1487.32 959.142 1494.66 957.906 1498.42 958.857C1502.86 959.984 1497.63 962.2 1498.73 962.617C1498.92 962.687 1503.58 962.46 1504.2 963.154C1504.89 963.9 1500.86 963.884 1500.93 964.197C1500.97 964.412 1507.66 965.951 1506.37 966.987C1505.34 968.025 1496.27 966.693 1494.35 967.182C1494.03 967.263 1494.63 968.545 1494.35 968.592C1493.22 968.764 1472.32 968.803 1471.37 968.592C1472.46 968.008 1473.54 967.424 1474.63 966.84C1473.19 966.781 1471.74 966.722 1470.29 966.663C1472.35 966.195 1474.41 965.727 1476.46 965.259C1473.41 960.452 1464.2 965.325 1463.82 967.725C1463.65 968.835 1469.28 971.69 1464.04 973.352C1464.84 973.637 1465.64 973.922 1466.43 974.207C1468.07 973.739 1469.72 973.271 1471.36 972.803C1470.26 972.508 1469.17 972.213 1468.08 971.918C1468.48 971.584 1468.88 971.251 1469.29 970.917C1472.35 970.382 1475.42 969.847 1478.49 969.312C1480.07 969.559 1479.74 970.544 1480.83 970.734C1494.35 973.133 1485.53 970.08 1494.38 970.52C1495.65 971.049 1496.91 971.578 1498.17 972.107C1497.73 969.92 1501.65 971.293 1506.39 970.349C1505.83 971.057 1505.26 971.765 1504.69 972.473C1511.57 972.097 1525.5 975.666 1521.74 971.759C1523.31 972.093 1524.89 972.427 1526.46 972.76C1527.79 972.121 1529.12 971.483 1530.45 970.844C1532.29 970.917 1534.12 970.99 1535.96 971.064C1535.97 971.409 1535.98 971.755 1535.99 972.101C1534.52 972.103 1533.06 972.105 1531.59 972.107C1532.69 973.161 1533.79 974.215 1534.89 975.269C1535.97 975.094 1537.05 974.919 1538.14 974.744C1533.6 973.747 1539.58 972.119 1541.03 970.728C1544.85 970.214 1547.3 972.02 1548.58 972.101C1549.18 972.14 1556.28 968.954 1553.5 972.455C1557.15 972.03 1560.81 971.605 1564.46 971.18C1565.89 971.448 1567.32 971.717 1568.75 971.985C1565.65 973.616 1574.63 975.581 1568.01 976.258C1563.07 976.765 1561.85 975.24 1559.51 975.25C1557.39 975.258 1556.27 976.285 1553.97 976.331C1538.5 976.62 1525.89 976.431 1511.19 975.977C1508.29 975.885 1505.65 976.389 1503.7 976.319C1501.5 976.237 1504.26 974.949 1501.45 975.263C1498.5 975.594 1497.87 976.645 1497.09 976.666C1496.6 976.678 1495.07 975.733 1493.66 975.733C1487.85 975.733 1479.35 976.647 1478.53 976.642C1477.59 976.631 1461.18 975.778 1460.4 975.623C1459.98 975.538 1460.84 972.046 1457.23 975.769C1456.1 975.838 1454.97 975.908 1453.84 975.977C1454.03 975.279 1454.21 974.581 1454.39 973.883C1447.71 976.529 1450 975.049 1443.56 975.257C1428.13 975.757 1405.37 975.169 1388.49 975.415C1384.72 975.472 1383.28 976.307 1378.82 976.367C1374.68 976.42 1363.87 973.927 1366.22 977.381C1357 974.39 1355.52 979.547 1350.91 976.331C1350.35 976.799 1349.79 977.267 1349.23 977.735C1344.22 975.727 1342.68 977.491 1337.21 977.735C1334.85 977.84 1337.57 975.705 1332.81 978.082C1331.9 977.905 1330.99 977.728 1330.09 977.551C1330.3 977.035 1330.51 976.518 1330.72 976.001C1325.44 976.424 1325.1 976.155 1325.7 978.089C1323.15 977.737 1320.6 977.385 1318.05 977.033C1317.73 977.667 1317.41 978.302 1317.1 978.937C1318.32 980.148 1376.23 978.322 1384.29 977.741C1393.75 979.177 1412.75 977.381 1420.39 977.722C1423.45 977.86 1424.8 979.295 1429.25 979.468C1433.7 979.64 1439.29 978.336 1441.66 978.29C1449.55 978.128 1486.94 978.414 1461.51 980.2C1462.24 980.9 1462.98 981.6 1463.71 982.3C1473.81 979.912 1470.15 981.382 1478.54 981.628C1482.07 981.734 1490.46 980.171 1489.99 983.35C1483.44 983.941 1476.47 982.925 1470.77 982.971C1470.21 982.976 1463.46 984.427 1459.99 984.033C1456.86 983.673 1459.01 980.643 1452.2 984.045C1447.13 980.722 1444.21 983.737 1442.87 984.058C1440.56 984.613 1440.31 982.973 1438 982.782C1435.48 982.571 1433.75 983.66 1433.4 983.667C1429.95 983.692 1411.98 983.84 1411.15 983.179C1411.88 982.888 1412.6 982.597 1413.32 982.306C1408.65 981.838 1409.63 983.515 1408.4 983.716C1407.49 983.71 1406.58 983.704 1405.66 983.697C1406.02 983.35 1406.39 983.002 1406.75 982.654C1401.24 982.728 1405.45 983.937 1397.63 983.905C1392.66 983.884 1387.53 982.556 1387.04 982.654C1386.9 982.682 1388.47 983.577 1386.44 983.697C1383.09 983.895 1377.29 983.872 1376.64 982.654C1375 982.826 1375.14 984.018 1374.92 984.045C1373.97 984.162 1357.56 984.567 1354.62 984.637C1346.48 984.831 1337.41 984.577 1328.59 984.778C1327.68 984.798 1328.26 984.033 1327.35 984.058C1325.89 984.097 1318.4 985.297 1317.28 985.382C1314.49 985.59 1307.14 985.114 1305.98 985.461C1305.82 985.511 1308.24 986.545 1305.41 986.865C1302.27 987.22 1303.96 985.829 1303.79 985.815C1297.4 985.34 1293.37 986.306 1289.01 986.493C1287.59 986.553 1284.99 985.506 1282.99 985.815C1282.76 985.85 1283.22 986.818 1282.99 986.865C1279.98 987.372 1277.16 985.578 1275.85 985.461C1272.66 985.177 1274.4 986.502 1274.23 986.511C1272.11 986.553 1269.25 986.076 1266.01 986.139C1251.6 986.421 1239.84 986.502 1224.52 986.413C1222.59 986.403 1220.31 985.469 1220.02 985.467C1219.11 985.474 1219.37 986.572 1216.74 986.548C1211.19 986.491 1206.05 986.544 1200.56 986.523C1199.45 986.519 1198.98 985.502 1198.14 985.48C1195.31 985.416 1185.67 988.08 1185.51 984.766C1179.9 987.7 1176.17 985.171 1171.66 985.199C1160.96 985.262 1144.21 985.86 1133.55 985.48C1131.3 985.398 1130.25 984.549 1129 984.503C1126.76 984.419 1113.96 984.893 1113.29 984.759C1111.97 984.502 1112.76 980.763 1106 984.021C1102.03 984.253 1102.5 982.718 1101.68 982.635C1095.29 982.019 1089.08 985.445 1090.24 982.306C1082.8 983.158 1077.98 984.893 1074.94 981.958C1074.98 983.39 1071.48 984.249 1067.26 983.704C1071.58 981.298 1071.05 979.76 1081.49 980.2C1081.65 980.207 1081.34 981.243 1081.5 981.25C1083 981.32 1086.11 980.797 1088.65 980.853C1091.19 980.91 1089.78 981.618 1090.8 981.604C1091.73 981.59 1091.7 980.599 1093.04 980.585C1097.42 980.546 1101.29 980.273 1103.77 980.255C1105.34 980.245 1107.1 981.116 1108.31 981.116C1113.01 981.109 1122.98 980.429 1128.96 980.524C1130.21 980.546 1129.68 981.523 1132.41 981.604C1132.73 981.613 1133.89 980.595 1136.28 980.383C1138.67 980.172 1140.52 980.678 1142.06 980.573C1143.34 980.485 1142.8 979.579 1145.43 979.523C1147.62 979.477 1172.45 980.129 1173.8 980.274C1175.74 980.482 1176.66 981.753 1177.84 981.598C1178.05 981.565 1178.4 980.337 1179.12 980.249C1191.03 978.798 1217.37 980.473 1230.97 980.463C1259.4 980.445 1285.63 979.723 1314.31 979.437C1314.82 979.224 1315.33 979.01 1315.84 978.797C1312.95 978.788 1310.05 978.78 1307.15 978.772C1307.13 978.194 1307.11 977.617 1307.09 977.039C1303.17 976.947 1303.69 978.314 1303.8 979.138C1302.35 978.788 1300.9 978.438 1299.45 978.089C1298.2 980.102 1288.53 978.763 1283.54 978.766C1280.3 978.766 1276.44 979.534 1274.73 979.474C1271.11 979.351 1271.21 978.108 1270.92 978.089C1270.44 978.06 1265.4 979.156 1261.76 979.114C1256.38 979.054 1255.8 977.146 1248.43 978.766C1239 977.776 1228.54 978.274 1218.37 978.436C1220.31 976.673 1211.19 978.342 1207.08 978.314C1182.01 978.142 1151.19 977.388 1125.78 976.691C1122.52 976.603 1120.05 975.564 1118.23 975.598C1117.25 975.616 1116.81 976.841 1115.44 976.679C1115.2 976.647 1115.04 975.502 1112.49 975.33C1106.14 974.897 1090.33 976.808 1086.33 974.61C1064.64 974.949 1042.94 975.289 1021.25 975.629C1020.7 975.161 1020.16 974.693 1019.61 974.225C1015.49 976.616 999.196 975.211 991.25 975.324C977.266 975.524 959.422 976.268 947.169 976.349C944.506 976.367 942.325 975.688 939.804 975.702C938.72 975.709 937.371 976.589 936.243 976.593C923.573 976.66 906.419 975.754 893.651 975.775C864.662 975.821 837.361 975.688 807.989 975.727C709.043 975.864 610.667 977.157 512.566 976.636C511.25 976.629 511.316 975.618 510.297 975.611C504.28 975.561 490.844 976.395 484.049 976.349C478.634 976.314 470.041 974.768 468.178 976.325C487.412 978.681 507.734 978.504 527.757 979.163C529.181 979.209 529.358 980.17 529.533 980.188C532.775 980.522 530.728 979.198 535.429 979.138C537 979.118 551.512 982.187 549.785 979.132C553.261 980.354 577.76 980.965 582.488 980.56C583.923 980.437 582.907 979.532 583.192 979.486C584.429 979.286 584.988 980.534 586.094 980.566C589.043 980.644 596.541 979.632 597.966 979.639C601.244 979.65 611.073 980.665 615.401 980.426C619.369 980.208 618.626 978.904 622.057 978.784C624.76 978.693 621.815 979.79 627.852 980.121C630.843 980.283 641.309 979.499 643.853 979.498C646.396 979.498 649.225 980.278 652.732 980.219C657.784 980.134 668.774 979.7 673.915 979.45C674.221 979.435 674.969 978.421 675.725 978.443C677.292 978.485 676.821 979.737 678.004 979.865C679.188 979.991 699.685 979.838 703.166 979.852C705.566 979.859 707.223 979.113 708.549 979.12C709.589 979.127 709.7 980.17 710.762 980.182C711.091 980.182 713.888 979.276 716.683 979.297C719.323 979.318 729.35 980.18 730.511 980.188C731.267 980.192 730.438 979.45 732.674 979.468C734.712 979.486 736.05 980.449 737.212 980.463C739.907 980.494 742.919 979.673 745.778 979.669C753.998 979.659 753.575 980.851 754.068 980.89C755.436 980.998 755.984 979.905 756.433 979.883C758.328 979.791 762.973 979.59 764.662 979.547C766.767 979.494 767.658 980.532 769.894 980.536C771.56 980.535 774.925 979.523 778.727 979.474C787.297 979.358 797.49 979.167 805.906 979.205C808.416 979.216 808.801 980.163 809.568 980.188C813.6 980.318 815.858 979.259 817.008 979.273C825.217 979.368 839.86 981.03 847.477 981.171C850.579 981.227 864.158 980.46 871.819 980.597C872.696 980.611 871.875 981.354 872.85 981.238C875.183 980.959 874.967 979.446 876.15 979.492C876.721 979.519 878.024 980.372 879.687 980.457C888.312 980.897 894.244 980.234 898.178 980.28C935.967 980.72 974.502 981.116 1009.79 981.25C1013.73 981.264 1018.61 980.364 1024.55 981.238C1024.73 981.708 1024.91 982.178 1025.09 982.648C1025.3 982.186 1025.51 981.724 1025.72 981.262C1032.45 981.012 1034.99 980.418 1041.86 981.006C1042.45 981.055 1044.26 983.201 1045.38 980.536C1052.18 982.466 1048.45 980.52 1053.5 980.341C1058.55 980.161 1063.46 980.756 1068.36 980.89C1071.05 981.845 1059.78 984.046 1059.04 984.039C1057.86 984.031 1056.63 982.706 1055.49 982.635C1052.12 982.425 1048.85 983.476 1048.1 982.294C1043.74 983.544 1049.17 982.919 1048.62 984.045C1045.71 983.579 1042.8 983.114 1039.89 982.648C1038.41 986.478 1022.32 981.483 1023.44 984.399C1022.16 983.815 1020.88 983.232 1019.6 982.648C1013.99 986.306 1010.69 983.73 1003.21 982.642C1003.75 983.11 1004.29 983.577 1004.83 984.045C1004.67 984.241 998.069 984.989 1000.43 982.996C993.659 985.622 993.945 981.253 987.875 984.412C984.269 984.817 986.437 982.982 979.982 983.014C976.157 983.032 971.409 983.991 967.134 984.058C966.15 984.07 965.722 983.008 964.846 983.008C963.97 983.008 963.542 984.05 962.481 984.076C960.289 984.132 957.448 983.401 956.078 983.472C954.85 983.532 953.096 984.45 950.137 984.595C939.804 985.105 942.925 983.794 941.293 983.35C939.54 982.878 938.28 984.606 934.784 984.405C934.433 984.384 935.341 983.307 934.201 983.35C933.281 983.383 932.819 984.553 929.774 984.772C928.561 984.86 909.738 985.111 906.871 985.132C902.476 985.163 892.686 984.173 888.138 984.18C886.385 984.18 884.512 985.12 882.65 985.113C876.479 985.092 866.601 985.013 858.775 984.967C851.729 984.924 839.359 982.85 835.5 984.723C825.605 984.966 823.202 983.365 822.456 983.343C820.44 983.284 819.506 984.344 816.963 984.393C784.029 985.01 740.66 984.309 709.469 984.393C637.113 984.598 564.363 985.177 491.755 984.747C491.561 985.217 491.366 985.687 491.172 986.157C499.753 986.46 509.838 987.277 518.31 987.463C529.621 987.71 546.399 985.752 554.695 988.965C551.33 989.246 545.849 988.015 545.947 989.667C551.962 989.785 557.976 989.903 563.991 990.021C563.812 989.258 563.632 988.495 563.453 987.732C569.733 987.51 576.156 987.676 582.458 987.567C583.552 987.549 582.777 986.856 583.73 986.853C584.797 986.85 584.074 987.555 584.273 987.561C586.969 987.568 587.783 986.855 588.112 986.865C588.956 986.893 588.299 987.572 590.732 987.762C595.246 988.118 598.478 986.314 597.418 989.319C598.875 989.319 600.332 989.319 601.789 989.319C602.166 988.501 602.544 987.683 602.921 986.865C611.884 990.167 616.017 984.375 620.97 988.971C622.603 988.269 624.236 987.567 625.87 986.865C626.79 987.683 627.711 988.501 628.631 989.319C628.811 988.617 628.99 987.915 629.169 987.213C637.969 987.731 647.339 986.888 655.755 986.969C661.618 987.025 663.022 987.302 668.215 987.25C679.766 987.13 668.295 988.523 677.894 990.027C677.394 989.166 676.894 988.305 676.395 987.445C677.984 987.13 679.574 986.814 681.163 986.499C682.27 987.201 683.377 987.903 684.483 988.605C689.393 984.964 692.573 987.903 693.241 987.903C693.781 987.896 695.636 985.705 701.446 987.561C699.036 984.564 705.878 987.543 706.426 987.561C706.947 987.573 713.607 986.904 716.31 986.932C718.437 986.954 722.973 987.599 726.14 987.567C728.936 987.539 728.652 986.522 728.856 986.511C732.298 986.427 730.141 987.217 732.629 987.256C735.117 987.294 737.047 986.428 737.584 986.505C737.854 986.546 736.951 987.494 738.188 987.585C741.509 987.835 747.515 987.005 751.317 987.03C752.665 987.038 754.363 987.841 755.864 987.866C758.165 987.901 759.241 986.833 760.578 986.865C761.043 986.879 764.011 988.528 767.701 988.275C768.403 988.224 770.464 984.734 773.204 989.679C773.415 988.983 773.626 988.287 773.838 987.591C786.211 985.869 789.655 991.521 795.156 986.505C804.141 987.065 797.973 989.019 798.959 989.319C799.597 989.508 802.526 988.971 802.848 989.001C803.418 989.061 803.32 989.688 803.944 989.685C815.397 989.569 810.312 988.384 813.94 987.634C822.565 985.848 829.294 989.813 814.292 988.623C814.292 988.973 814.292 989.323 814.292 989.673C817.986 989.338 827.363 989.497 824.232 991.272C821.766 992.67 799.519 991.757 812.119 993.719C814.979 994.163 816.461 992.85 821.415 995.312C824.691 995.446 825.163 992.256 829.599 993.536C828.87 992.423 828.14 991.31 827.411 990.198C833.461 988.747 840.924 990.693 845.571 990.069C847.15 989.857 852.838 984.551 851.512 989.856C854.166 989.525 866.669 990.502 868.992 990.027C869.551 989.912 870.279 987.088 878.364 988.074C878.925 988.428 879.487 988.782 880.049 989.136C872.654 990.164 885.713 991.21 882.167 993.89C880.961 992.685 875.097 991.951 874.153 991.345C872.542 990.302 877.341 988.958 871.226 989.325C867.37 993.804 878.393 991.743 876.709 995.996C884.738 994.01 885.54 995.905 887.358 995.983C895.128 996.304 900.018 995.853 907.349 996.35C909.135 995.476 895.863 994.215 894.219 994.592C900.269 991.496 889.856 991.355 885.461 993.194C885.093 992.258 884.724 991.323 884.355 990.387C890.076 990.894 895.656 991.155 901.322 990.387C901.691 990.737 902.06 991.087 902.429 991.436C901.158 991.963 899.887 992.49 898.616 993.017C903.328 993.88 900.502 991.151 906.78 993.542C906.975 992.488 907.169 991.434 907.364 990.381C913.383 990.731 919.403 991.08 925.423 991.43C928.557 989.317 940.14 990.104 938.019 992.84C942.694 993.033 936.922 991.577 941.304 990.912C943.211 990.623 946.937 990.542 947.858 991.278C947.462 993.883 941.884 994.207 940.197 995.996C941.221 996.573 967.158 994.713 964.846 997.76C966.917 998.126 965.965 996.556 969.7 996.154C980.167 995.034 996.379 998.137 1004.81 994.244C994.91 992.078 991.983 994.372 984.399 994.464C979.554 994.524 950.018 994.893 956.616 992.138C955.531 992.488 954.446 992.838 953.361 993.188C952.265 992.368 951.168 991.548 950.071 990.729C953.162 990.611 956.252 990.493 959.342 990.375C960.08 991.192 960.818 992.01 961.556 992.828C961.896 992.244 962.237 991.66 962.577 991.076C963.878 990.96 965.179 990.844 966.481 990.729C966.115 991.43 965.75 992.132 965.384 992.834C967.389 992.954 969.395 993.074 971.4 993.194C970.86 992.256 970.32 991.318 969.78 990.381C979.225 990.145 976.026 990.732 981.265 992.486C985.176 992.666 978.569 990.863 986.843 990.405C996.465 989.873 990.153 992.739 1002.61 992.126C1002.79 991.658 1002.97 991.19 1003.15 990.722C1005.89 991.19 1008.63 991.658 1011.37 992.126C1011.01 991.544 1010.65 990.962 1010.28 990.381C1015.94 990.606 1023.73 989.496 1025.61 991.778C1019.88 990.679 1019.93 994.665 1021.42 995.398C1024.5 996.901 1069.95 995.502 1078.76 995.404C1090.03 995.277 1098.54 996.554 1108.83 994.592C1101.86 992.983 1077.34 994.301 1072.69 993.188C1072.23 993.079 1072.36 989.425 1069.4 993.536C1059.87 992.839 1048.47 994.004 1036.56 993.884C1036.92 992.832 1037.29 991.78 1037.65 990.729C1044.97 992.965 1051.75 988.052 1050.79 992.138C1052.25 992.138 1053.71 992.138 1055.17 992.138C1055.17 991.434 1055.17 990.731 1055.17 990.027C1057.36 990.027 1059.56 990.027 1061.76 990.027C1061.76 990.731 1061.76 991.434 1061.76 992.138C1063.57 992.138 1065.39 992.138 1067.21 992.138C1067.4 991.436 1067.59 990.735 1067.78 990.033C1073.23 991.491 1091.8 987.593 1083.64 991.784C1086.2 991.784 1088.76 991.784 1091.31 991.784C1091.31 991.27 1091.3 990.755 1091.29 990.24C1092.39 990.171 1093.49 990.102 1094.59 990.033C1094.23 990.499 1093.86 990.965 1093.5 991.43C1098.54 990.596 1103.32 993.048 1106.63 991.436C1104.45 991.085 1102.27 990.733 1100.08 990.381C1104.27 991.049 1111.98 989.664 1112.67 989.66C1114.78 989.653 1115.89 990.694 1118.17 990.747C1120.22 990.792 1119.94 989.992 1120.32 990.021C1131.42 990.834 1127.19 995.163 1132.38 990.039C1132.93 990.739 1133.48 991.439 1134.03 992.138C1134.77 991.554 1135.5 990.971 1136.24 990.387C1139.51 990.442 1142.79 990.497 1146.07 990.552C1144.98 989.677 1143.88 988.802 1142.79 987.927C1147.7 987.537 1150 989.291 1150.47 989.331C1151.82 989.433 1152.43 988.332 1152.85 988.33C1172.87 988.425 1160.71 989.394 1170.72 993.53C1174.29 991.907 1170.68 990.28 1170.17 988.629C1174.91 989.404 1176.39 988.946 1181.4 989.038C1182.71 989.063 1184.11 989.954 1184.93 989.966C1185.64 989.976 1187.87 989.03 1189.58 989.026C1192.43 989.019 1196.22 989.583 1200.12 989.569C1203.36 989.555 1213.3 988.886 1220.22 988.879C1223.18 988.879 1222.49 989.671 1223.26 989.673C1223.57 989.673 1225.88 988.724 1227.77 988.721C1243.24 988.699 1259.08 989.3 1274.63 989.282C1285.57 989.271 1296.7 988.509 1307.67 988.586C1310 988.604 1308.77 989.3 1309.79 989.325C1310.14 989.331 1310.56 988.116 1314.17 988.605C1315.47 988.781 1313.97 989.63 1315.26 989.673C1315.88 989.693 1316.15 988.628 1319.79 988.385C1326.42 987.941 1329.99 989.361 1330.58 989.319C1331.69 989.237 1331.37 988.355 1332.85 988.324C1340.08 988.169 1346.12 988.019 1352.57 987.945C1355.58 987.91 1376.37 987.732 1377.51 987.89C1380.06 988.243 1377.68 990.083 1380.96 990.021C1381.87 989.555 1382.79 989.089 1383.71 988.623C1382.25 988.269 1380.79 987.915 1379.34 987.561C1383.35 988.153 1387.9 987.316 1390.87 987.347C1391.42 987.354 1396.47 988.189 1399.04 988.098C1397.95 988.444 1396.85 988.79 1395.76 989.136C1396.14 989.431 1396.53 989.726 1396.92 990.021C1402.07 989.573 1407.52 989.585 1412.8 989.648C1414.7 989.67 1414.06 990.386 1415.99 990.411C1427.22 990.562 1424.38 987.582 1435.19 993.176C1431.54 992.669 1418.23 993.38 1416.3 993.194C1414.95 993.064 1409.72 988.338 1411.64 993.188C1400.85 993.167 1410.22 990.492 1400.15 991.076C1400.35 991.668 1400.55 992.26 1400.75 992.852C1397.24 993.226 1394.64 993.525 1392.5 992.48C1391.79 995.352 1379.84 993.672 1373.29 993.866C1363.82 994.14 1353.12 994.841 1343.74 994.964C1340.51 995.006 1338.68 993.88 1338.27 993.884C1337.68 993.892 1336.01 994.878 1334.83 994.885C1330.41 994.913 1316.97 993.246 1313.63 995.983C1339.91 995.983 1366.19 995.983 1392.48 995.983C1389.17 994.638 1415.76 994.507 1417.11 994.574C1418.35 994.634 1417.3 995.578 1417.67 995.636C1420.44 996.041 1422.79 994.671 1423.67 994.671C1424.34 994.671 1425.69 995.314 1428.07 995.3C1428.5 995.298 1428.62 994.618 1429.09 994.616C1432.19 994.616 1435.26 994.626 1438.37 994.622C1438.56 994.629 1439.34 995.622 1440.13 995.623C1440.92 995.623 1441.7 994.632 1441.9 994.629C1444.38 994.636 1448.65 995.281 1451.02 995.288C1451.84 995.287 1451.27 994.561 1452.19 994.568C1455.01 994.585 1454.08 996.008 1457.58 995.642C1458.75 995.518 1458.68 994.43 1460.92 994.574C1462.51 994.676 1462.34 996.615 1462.59 996.685C1462.94 996.77 1468.42 995.239 1470.22 996.508C1466.3 999.859 1474.5 996.683 1474.11 995.269C1476.28 995.625 1478.46 995.981 1480.63 996.337C1481.37 995.979 1482.11 995.621 1482.85 995.263C1491.62 996.877 1496.97 995.908 1505.59 996.405C1506.01 996.429 1513.28 997.225 1512.94 997.729C1508.59 998.595 1504.25 998.635 1501.46 997.033C1496.88 1000.09 1496.8 997.654 1489.41 998.059C1486.93 998.196 1486.75 999.025 1486.47 999.035C1476.84 999.447 1461.41 999.804 1454.92 997.381C1453.1 998.036 1459.64 998.296 1457.1 998.779C1455.71 999.043 1422.33 999.817 1433 997.027C1431.89 997.104 1430.78 997.182 1429.68 997.259C1428.57 999.894 1423.07 999.291 1423.69 996.667C1423.17 997.204 1422.65 997.741 1422.13 998.278C1421.1 998.733 1419.88 998.976 1418.17 999.121C1411.62 999.67 1372.67 998.756 1370.6 999.133C1370.55 999.755 1370.51 1000.38 1370.46 1001C1387.67 1001.7 1404.36 1000.16 1423.12 1001.94C1422.58 1001.36 1422.03 1000.77 1421.49 1000.19C1428.97 1001.01 1436.46 1001.82 1443.95 1002.64C1436.02 1003.7 1423.42 1004.59 1415.1 1003.72C1413.62 1003.56 1414.7 1002.75 1414.36 1002.65C1413.48 1002.39 1412.52 1003.8 1409.33 1003.94C1406.14 1004.08 1398.13 1003.08 1397.4 1003.11C1395.98 1003.16 1392.16 1004.78 1389.75 1004.76C1386.58 1004.73 1388.71 1003.73 1388.07 1003.71C1385.44 1003.61 1383.08 1004.11 1381.02 1004.03C1377.96 1003.92 1371.61 1002.16 1369.47 1004.75C1371.66 1004.87 1373.84 1004.98 1376.03 1005.1C1364.18 1006.03 1354.92 1002.73 1343.24 1005.27C1340.59 1008.4 1350.24 1007.98 1342.08 1009.31C1343.56 1009.27 1345.04 1009.22 1346.52 1009.18C1346.87 1008.52 1347.22 1007.87 1347.57 1007.21C1350.12 1007.68 1352.67 1008.15 1355.22 1008.62C1354.49 1008.03 1353.76 1007.45 1353.03 1006.87C1362.08 1006.43 1371.21 1005.83 1374.36 1008.97C1374.55 1008.21 1374.73 1007.45 1374.92 1006.69C1383.32 1007.61 1395.92 1004.39 1393.56 1008.62C1393.96 1008.39 1394.36 1008.17 1394.76 1007.95C1399.83 1008.81 1397.66 1007.06 1399.57 1006.87C1400.11 1006.81 1409.98 1007.71 1405.61 1008.97C1415.23 1009.92 1412.26 1005.98 1414.91 1005.8C1421.07 1007.76 1432.15 1004.83 1427.49 1007.92C1428.41 1008.03 1429.33 1008.15 1430.24 1008.26C1433.26 1005.83 1436.23 1008.58 1439.5 1009.5C1440.6 1009.56 1441.71 1009.61 1442.82 1009.67C1443.56 1008.85 1444.3 1008.03 1445.04 1007.21C1455.45 1011.11 1452.15 1000.46 1456.91 1009.4C1456.17 1009.94 1455.43 1010.47 1454.69 1011.01C1452.93 1011.26 1451.17 1011.52 1449.42 1011.77C1456.5 1012.01 1463.59 1012.24 1470.68 1012.48C1479.68 1014.99 1484.8 1012.27 1494.79 1014.25C1495.73 1014.01 1496.66 1013.77 1497.6 1013.54C1496.64 1015.56 1493.01 1015.26 1499.77 1016.17C1500.35 1017.61 1495.78 1017.79 1493.7 1016.69C1493.2 1016.42 1497.47 1015.33 1492.67 1015.29C1489.41 1015.26 1495.33 1016.98 1485.56 1016.34C1485.92 1016.69 1486.28 1017.04 1486.65 1017.39C1485.59 1017.38 1484.53 1017.37 1483.47 1017.36C1482.52 1016.55 1481.58 1015.74 1480.64 1014.93C1478.22 1016.1 1476.86 1017.74 1471.32 1017.39C1472.82 1016.89 1470.79 1015.26 1468.05 1015.29C1468.05 1015.87 1468.05 1016.46 1468.05 1017.05C1461.42 1017.42 1463.71 1015.7 1458.19 1017.05C1457.64 1016.58 1457.09 1016.11 1456.54 1015.65C1453.54 1017.57 1442.48 1018.87 1444.5 1016C1441.39 1018.79 1434.88 1017.53 1432.46 1015.29C1432.27 1015.88 1432.09 1016.46 1431.9 1017.04C1430.61 1017.16 1429.32 1017.28 1428.03 1017.39C1427.31 1017.04 1426.59 1016.69 1425.87 1016.34C1424.96 1016.69 1424.05 1017.04 1423.13 1017.39C1422.58 1016.81 1422.03 1016.23 1421.48 1015.64C1420.01 1016.34 1418.54 1017.04 1417.07 1017.74C1416.17 1017.28 1415.27 1016.81 1414.37 1016.34C1414.28 1017.56 1405.38 1017.83 1402.89 1017.03C1402.15 1017.39 1401.41 1017.74 1400.67 1018.1C1400.3 1017.52 1399.94 1016.94 1399.58 1016.36C1399.03 1016.82 1398.48 1017.28 1397.92 1017.75C1396.65 1017.28 1395.38 1016.82 1394.11 1016.36C1388.93 1019.2 1388.76 1016.7 1387.58 1016.72C1385.38 1016.76 1377.91 1018.54 1376.66 1018.44C1375.41 1018.35 1374.81 1017.33 1373.8 1017.24C1357.2 1015.63 1364.03 1018.37 1360.7 1018.8C1358.9 1019.04 1357.63 1018.09 1356.04 1018.19C1353.32 1018.37 1339.61 1019.63 1338.82 1019.51C1337.67 1019.33 1340.37 1014.84 1336.64 1016C1336.52 1018.41 1328.53 1015.97 1332.26 1019.33C1328.98 1019.04 1325.69 1018.74 1322.4 1018.45C1322.77 1021.31 1318.72 1019.47 1314.3 1019.63C1308.04 1019.85 1293.95 1021.73 1294.47 1018.8C1292.97 1019.47 1291.47 1020.14 1289.97 1020.82C1279.71 1019.9 1269.65 1020.86 1259.47 1020.9C1229.25 1021.01 1196.47 1020.37 1166.4 1019.79C1164.95 1019.76 1165.16 1018.81 1164.12 1018.79C1158.65 1018.68 1144.43 1019.36 1136.77 1019.15C1134.32 1019.08 1133.12 1018.14 1132.35 1018.1C1129.71 1017.95 1130.33 1019.18 1129.11 1019.15C1127.19 1019.09 1117.04 1017.95 1113.55 1017.83C1111.82 1017.77 1109.77 1018.75 1107.74 1018.44C1107.57 1018.42 1107.89 1017.41 1107.74 1017.39C1104.05 1017.27 1106.27 1018.14 1105.02 1018.1C1096.11 1017.77 1086.59 1017.75 1076.92 1017.54C1074.52 1017.49 1070.85 1016.78 1068.79 1016.71C1068 1016.69 1069.41 1017.45 1066.7 1017.39C1065.76 1017.37 1065.45 1016.37 1064.4 1016.31C1059.87 1016.04 1058.36 1019.23 1054.47 1016.66C1046.96 1016.83 1033.89 1017.65 1027.04 1017.67C1025.42 1017.67 1024.63 1017.08 1023.09 1017.09C1021.99 1017.1 1020.06 1018.01 1018.35 1018.02C1016.64 1018.03 1013.95 1017.17 1010.66 1017.2C1007.2 1017.23 1002.89 1017.74 1002.11 1017.74C1001.17 1017.74 1000.73 1016.65 999.787 1016.66C996.937 1016.7 989.308 1017.77 985.636 1017.89C981.691 1018.01 979.323 1017.48 977.975 1017.49C976.726 1017.51 975.271 1018.43 974.7 1018.44C973.813 1018.45 973.603 1017.37 972.477 1017.38C970.636 1017.4 968.738 1018.08 965.977 1018.1C916.264 1018.43 867.522 1017.84 819.156 1017.05C813.764 1016.96 810.718 1017.72 802.772 1017.38C799.551 1017.23 800.908 1016.12 798.401 1016.33C797.283 1016.43 797.566 1017.3 796.152 1017.35C789.905 1017.53 782.626 1016.71 779.919 1016.73C778.846 1016.73 777.619 1017.73 775.417 1017.74C759.011 1017.85 739.6 1017.58 721.944 1017.75C712.596 1017.84 698.443 1018.35 687.713 1018.41C658.067 1018.6 626.175 1018.37 599.138 1018.47C558.313 1018.61 517.683 1019.53 476.946 1018.44C496.005 1020.85 521.957 1020.65 543.175 1020.91C604.462 1021.66 669.718 1020.26 732.528 1020.31C754.382 1020.33 781.936 1020.27 805.861 1020.83C806.946 1020.85 809.195 1020.09 811.54 1020.17C812.038 1020.19 818.217 1021.59 820.298 1021.6C818.325 1019.12 826.48 1021.33 829.001 1021.27C832.18 1021.19 838.81 1019.95 846.25 1020.65C853.001 1021.29 851.139 1022.24 851.512 1022.3C853.899 1022.69 854.733 1021.15 856.562 1020.99C864.037 1020.37 902.484 1021.27 913.214 1021.32C915.987 1021.34 916.065 1022.32 916.69 1022.32C918.344 1022.33 920.699 1021.36 923.35 1021.37C928.129 1021.38 933.633 1022.3 936.263 1022.31C942.554 1022.32 954.492 1021.23 962.667 1021.21C964.967 1021.2 964.826 1022.22 965.867 1022.22C970.449 1022.2 982.383 1021 988.071 1020.99C997.31 1020.97 1006.81 1021.63 1016.21 1021.29C1016.8 1021.75 1017.4 1022.2 1017.99 1022.66C1018.93 1022.18 1019.87 1021.7 1020.81 1021.23C1036.69 1021.59 1052.85 1020.57 1068.65 1020.63C1070.47 1020.64 1079.47 1021.51 1080.98 1021.51C1082.23 1021.51 1083.46 1020.39 1085.31 1020.56C1087.9 1020.79 1085.46 1022.93 1089.7 1022.31C1090.84 1022.15 1089.73 1021.23 1092.02 1020.95C1092.78 1020.85 1107.46 1020.48 1108.25 1020.54C1109.56 1020.65 1110.73 1022.61 1111.07 1022.66C1112.84 1022.88 1112.76 1021.37 1113.95 1021.23C1117.44 1020.82 1122 1021.83 1122.57 1021.81C1129.43 1021.53 1142.25 1020.33 1149.45 1021.04C1150.45 1021.14 1150.33 1022.26 1150.51 1022.3C1151.63 1022.53 1152.34 1021.26 1153.41 1021.23C1159.18 1021.08 1168.23 1021.94 1174.04 1022.16C1174.71 1022.18 1176.12 1021.57 1177.31 1021.63C1184.06 1021.97 1181.87 1022.96 1182.26 1023C1183.17 1023.11 1184.77 1022.02 1187.19 1021.95C1193.42 1021.77 1205.38 1021.93 1212.07 1022.01C1217.08 1022.08 1217 1023.33 1217.33 1023.35C1218.03 1023.4 1219.98 1022.4 1223.28 1022.29C1229.63 1022.07 1228.9 1023.05 1231.51 1023C1231.73 1023 1231.35 1022.05 1234.24 1021.95C1239.83 1021.76 1252.39 1022.7 1258.37 1022.65C1260.67 1022.63 1261.21 1021.71 1263.57 1021.69C1267.3 1021.66 1275.74 1022.66 1276.4 1022.66C1276.59 1022.66 1277.01 1021.59 1278.1 1021.59C1279.31 1021.59 1280.49 1022.14 1281.39 1022.14C1286.51 1022.12 1295.33 1020.27 1292.88 1024.06C1294.52 1023.12 1296.16 1022.19 1297.8 1021.25C1308.51 1021.44 1318.93 1021.06 1329.55 1020.87C1331.94 1020.83 1333.93 1021.55 1335.95 1021.51C1337.96 1021.48 1346.85 1020.29 1348.34 1020.27C1350.99 1020.23 1366.06 1020.1 1367.94 1020.19C1371.6 1020.35 1375.15 1021.92 1376.64 1021.61C1377.84 1021.36 1376.73 1020.48 1379.01 1020.23C1382.96 1019.8 1389.66 1020.93 1390.87 1020.92C1391.38 1020.91 1390.42 1020.22 1395.24 1020.17C1397.84 1020.14 1399.23 1020.9 1400.17 1020.9C1400.47 1020.89 1400.03 1019.66 1405.17 1019.83C1408.72 1019.95 1410.23 1020.89 1410.61 1020.9C1411.17 1020.9 1412.52 1019.89 1414.76 1019.93C1420.01 1020.02 1429.61 1021.18 1434.6 1021.26C1435.56 1021.28 1435.23 1020.06 1439.08 1020.17C1441.83 1020.25 1441.35 1021.22 1442.38 1021.26C1444.01 1021.32 1446.44 1020.13 1450.05 1020.17C1454.59 1020.22 1488.28 1021.46 1490.02 1021.78C1491.19 1021.99 1492.55 1022 1493.13 1022.53C1492.64 1023.04 1492.14 1023.55 1491.64 1024.05C1486.48 1022.27 1488.56 1024.31 1487.19 1024.44C1485.21 1024.62 1477.73 1024.36 1475.93 1024.82C1475.28 1024.98 1476.76 1026.06 1473.29 1026.62C1469.58 1027.21 1467.93 1025.29 1466.45 1027.92C1461.18 1025 1456.11 1028.1 1462.22 1028.92C1465.63 1029.38 1499.05 1030.43 1505.88 1030.59C1511.42 1030.72 1521.78 1029.94 1528.59 1030.14C1532.59 1030.26 1542.44 1030.39 1542.02 1031.79C1545.58 1031.97 1541.82 1030.58 1542.56 1030.38C1544.12 1029.98 1555.2 1030.94 1557.3 1030.9C1567.65 1030.72 1580.7 1029.15 1590.75 1030.92C1590.29 1031.29 1589.82 1031.67 1589.35 1032.04C1587.09 1032.73 1576.61 1031.75 1575.43 1033.54C1590.75 1033.54 1606.08 1033.54 1621.4 1033.54C1621.11 1032.01 1640.12 1032.04 1641.02 1032.73C1640.68 1033.47 1640.35 1034.21 1640.02 1034.95C1629.28 1032.14 1630.24 1035.85 1623.03 1033.88C1620.09 1033.85 1620.98 1035.07 1619.53 1035.31C1605.13 1037.62 1619.3 1032.8 1608.28 1033.89C1611.6 1035.67 1602.57 1036.31 1598.53 1036.54C1597.61 1036.59 1585.51 1036.14 1584.08 1036.17C1576.01 1036.33 1562.16 1037.3 1554.15 1036.33C1547.84 1036.21 1544.36 1037.47 1538.63 1037.77C1534.28 1037.99 1535.53 1037.1 1533.48 1037.09C1529.18 1037.06 1527.77 1039.77 1525.02 1036C1522.1 1036.47 1519.19 1036.94 1516.28 1037.41C1516.28 1036.82 1516.28 1036.23 1516.28 1035.65C1514.45 1035.65 1512.62 1035.65 1510.79 1035.65C1510.25 1036.23 1509.71 1036.82 1509.18 1037.4C1503.37 1036.6 1505.79 1035.19 1504.71 1033.53C1503.46 1033.42 1502.2 1033.3 1500.95 1033.19C1499.98 1034.46 1499 1035.74 1498.03 1037.01C1492.43 1036.91 1486.83 1036.8 1481.23 1036.7C1480.87 1036.11 1480.51 1035.53 1480.15 1034.95C1480.13 1035.53 1480.12 1036.11 1480.11 1036.7C1470.63 1036.82 1461.14 1036.94 1451.66 1037.06C1449.14 1038 1464.33 1038.71 1465.48 1038.76C1471.88 1039.07 1488.88 1038.13 1488.9 1040.21C1492.88 1038.66 1504.86 1039.05 1508.59 1040.91C1502.93 1040.8 1497.28 1040.69 1491.62 1040.57C1491.8 1041.27 1491.99 1041.97 1492.17 1042.67C1485.12 1039.85 1484.09 1040.01 1476.85 1042.67C1476.84 1041.73 1476.83 1040.8 1476.83 1039.86C1471.77 1043.11 1462.85 1037.59 1462.59 1041.61C1459.9 1041.29 1457.21 1040.96 1454.52 1040.64C1448.71 1041.13 1457.73 1044.21 1434.99 1043C1433.43 1042.92 1433.75 1041.9 1431.4 1041.97C1430.72 1041.99 1426.83 1043.48 1419.38 1043.32C1418.22 1043.3 1418.13 1042.41 1416.93 1042.3C1414.15 1042.03 1408.6 1043.78 1411.12 1040.92C1400.1 1040.09 1404.66 1042.44 1401.24 1043.37C1398.97 1043.99 1399.42 1042.3 1397.45 1042.68C1395.01 1043.16 1396.8 1044.86 1387.03 1044.08C1388.13 1043.96 1389.22 1043.85 1390.32 1043.73C1389.77 1043.27 1389.22 1042.8 1388.66 1042.34C1383.09 1043.45 1383.61 1041.83 1380.98 1044.43C1376.93 1043.27 1373.42 1043.18 1367.87 1043.39C1357.1 1043.8 1362.62 1046.61 1350.33 1042.83C1348.34 1043.36 1346.34 1043.89 1344.35 1044.42C1341.08 1043.3 1343.73 1041.91 1338.84 1041.62C1342.66 1044.38 1332.35 1043.38 1330.61 1045.84C1330.43 1045.25 1330.24 1044.66 1330.06 1044.08C1328.97 1044.08 1327.88 1044.08 1326.79 1044.08C1326.78 1044.55 1326.78 1045.02 1326.78 1045.49C1325.32 1045.14 1323.87 1044.78 1322.41 1044.43C1321.32 1044.9 1320.23 1045.36 1319.13 1045.83C1317.34 1044.85 1315.54 1043.86 1313.74 1042.88C1312.61 1042.81 1311.48 1042.75 1310.36 1042.68C1310.71 1043.38 1311.07 1044.08 1311.43 1044.78C1309.98 1044.55 1308.53 1044.31 1307.08 1044.08C1308.76 1045.23 1307.7 1046.57 1303.19 1046.54C1299.46 1046.51 1303.66 1044.11 1295.65 1045.11C1295.09 1045.18 1294.1 1046.89 1286.53 1047.15C1277.45 1047.47 1281.86 1046.23 1280.24 1046.19C1279.92 1046.18 1277.15 1047.04 1274.55 1047.17C1273.08 1047.24 1271.66 1046.54 1271.46 1046.54C1270.55 1046.58 1270.29 1047.56 1269.03 1047.59C1265.83 1047.68 1261.53 1047.2 1258.4 1047.25C1256.97 1047.27 1255.63 1047.85 1255 1047.86C1254.01 1047.86 1252.76 1046.97 1251.76 1046.98C1248.08 1047 1242.49 1049.95 1240.78 1045.85C1237.24 1049.62 1229.83 1045.06 1230.37 1047.59C1220.91 1046.63 1195.68 1049.73 1196.42 1045.49C1191.06 1049.12 1191.54 1046.49 1189.3 1046.54C1186.79 1046.6 1188.09 1047.31 1186.09 1047.28C1181.43 1047.2 1176.98 1046.9 1172.35 1046.89C1173.08 1046.3 1173.8 1045.72 1174.53 1045.14C1169.67 1044.95 1171.34 1046.31 1166.38 1046.57C1157.25 1047.04 1161.09 1045.96 1159.75 1044.44C1160.11 1045.91 1149.34 1045.68 1148.25 1045.49C1147.59 1045.37 1150.46 1043.47 1143.87 1044.08C1144.23 1044.67 1144.59 1045.25 1144.95 1045.84C1141.94 1045.04 1133.79 1046.05 1132.4 1045.85C1131.77 1045.76 1128.37 1041.05 1125.25 1044.78C1124.88 1044.2 1124.5 1043.61 1124.13 1043.03C1120.67 1043.73 1117.22 1044.43 1113.76 1045.13C1113.21 1044.08 1112.66 1043.03 1112.1 1041.98C1111.01 1041.98 1109.91 1041.98 1108.81 1041.98C1109.54 1042.91 1110.27 1043.85 1111 1044.78C1104.23 1044.36 1095.95 1045.83 1094.56 1042.68C1093.11 1043.26 1091.66 1043.85 1090.21 1044.43C1089.26 1043.38 1088.32 1042.34 1087.38 1041.29C1080.66 1041.55 1080.55 1042.25 1075.96 1043.37C1076.14 1042.55 1076.32 1041.73 1076.49 1040.92C1073.11 1042.06 1066.93 1043.13 1062.04 1043.28C1059.71 1043.34 1055.72 1042.22 1055.18 1042.32C1054.62 1042.43 1049.17 1046.86 1048.58 1043.02C1040.56 1044.72 1037.03 1042.99 1033.77 1043.03C1031.66 1043.06 1030.69 1043.98 1028.3 1044.07C1024.88 1044.21 1021.44 1043.76 1019.47 1043.83C1018.34 1043.87 1018.13 1044.76 1017.35 1044.79C1013.67 1044.93 1015.83 1044.01 1011.95 1044.07C1011.59 1044.08 1008.76 1045.18 1005.56 1045.04C1003.77 1044.96 999.152 1043.73 998.745 1043.73C996.937 1043.75 998.382 1046.21 992.201 1043.37C992.38 1043.84 992.559 1044.31 992.739 1044.77C985.089 1045.96 983.882 1043.87 982.336 1043.73C982.139 1043.72 980.276 1044.52 979.162 1044.41C977.28 1044.22 976.521 1043.12 976.104 1043.07C974.635 1042.9 969.688 1043.39 966.455 1042.32C967.135 1045.46 955.806 1046.58 953.296 1043.02C951.29 1043.72 949.285 1044.43 947.28 1045.13C946.372 1044.54 945.465 1043.96 944.558 1043.37C944.007 1043.95 943.455 1044.54 942.903 1045.12C939.981 1043.84 937.058 1042.55 934.135 1041.26C933.949 1042.55 933.763 1043.84 933.577 1045.13C932.759 1044.98 931.94 1044.83 931.122 1044.69C930.483 1043.66 929.844 1042.64 929.206 1041.62C928.183 1041.81 927.16 1042.01 926.137 1042.2C925.884 1042.94 925.631 1043.69 925.377 1044.43C919.879 1045.28 922.704 1038.22 912.228 1044.43C910.598 1043.84 908.968 1043.26 907.338 1042.67C905.498 1045.52 902.048 1043.79 899.265 1044.11C897.303 1044.34 897.41 1045.47 894.737 1045.49C892.063 1045.52 892.159 1044.44 891.951 1044.43C889.771 1044.37 888.127 1045.32 886.528 1045.13C886.287 1045.1 885.683 1043.82 883.646 1043.74C881.607 1043.65 880.378 1045.02 877.342 1044.76C875.787 1044.63 875.337 1043.55 873.957 1043.46C867.381 1042.99 860.759 1048.46 855.828 1041.97C854.716 1042.79 846.652 1045.67 843.201 1045.51C837.834 1045.24 839.902 1043.97 837.769 1043.74C837.462 1043.7 835.827 1044.13 831.325 1044.05C830.519 1044.04 830.706 1044.76 830.59 1044.77C825.341 1044.75 815.147 1044.19 809.382 1044.08C808.867 1044.07 806.17 1046.08 801.6 1043.38C794.828 1045.37 782.071 1041.1 773.138 1044.1C771.9 1044.16 770.397 1043.44 769.849 1043.47C765.125 1043.69 766.856 1045.86 756.181 1042.68C757.045 1043.79 754.548 1044.79 751.02 1044.71C745.715 1044.58 749.483 1042.51 745.22 1042.68C745.22 1043.26 745.22 1043.85 745.22 1044.43C735.412 1042.86 733.461 1045.36 723.62 1045.37C720.08 1045.38 714.85 1044.08 714.007 1044.08C713.68 1044.08 709.809 1045.49 709.439 1045.5C707.357 1045.54 706.181 1044.89 704.383 1044.89C698.444 1044.88 691.355 1046.71 692.638 1043.38C691.004 1044.08 689.371 1044.79 687.738 1045.49C681.568 1041.94 676.953 1046.83 675.66 1043.38C674.557 1044.09 673.453 1044.81 672.35 1045.52C645.885 1045.16 619.421 1044.8 592.956 1044.44C591.904 1045.55 580.363 1045.15 579.771 1044.98C577.054 1044.2 579.924 1041.78 574.379 1042.33C573.765 1043.39 573.151 1044.45 572.538 1045.51C565.568 1045.86 568.92 1044.8 566.169 1044.08C565.02 1044.21 565.391 1045.04 563.835 1045.1C555.396 1045.42 538.092 1045.46 528.864 1045.53C527.003 1045.54 527.284 1044.78 526.706 1044.77C525.117 1044.78 521.982 1045.75 518.793 1045.75C499.077 1045.74 471.139 1045.2 451.291 1044.38C449.943 1044.33 449.776 1043.41 448.866 1043.36C447.605 1043.3 444.789 1044.05 443.464 1043.97C442.215 1043.9 441.415 1043.2 440.078 1043.12C433.962 1042.74 425.74 1043.92 419.197 1041.86C418.647 1041.69 411.792 1038 411.636 1037.75C410.727 1036.32 416.819 1034.06 406.812 1031.96C415.756 1030.12 412.962 1026.88 401.344 1025.29C407.171 1024.88 412.998 1024.47 418.825 1024.06C418.833 1023.68 418.842 1023.3 418.85 1022.91C413.546 1021.01 408.283 1020.37 400.217 1020.2C400.469 1019.84 400.721 1019.48 400.972 1019.13C408.096 1017.35 416.69 1017.02 422.115 1014.59C414.158 1012.8 406.202 1011 398.246 1009.2C398.643 1008.92 399.04 1008.64 399.438 1008.36C403.252 1007.63 411.583 1007.2 414.75 1006.52C426.847 1003.93 404.163 1004.58 407.889 1003C420.661 1003.06 433.433 1003.12 446.205 1003.17C446.653 1002.01 397.518 998.791 398.024 995.275C402.038 995.039 406.053 994.803 410.067 994.568C408.278 993.674 406.489 992.781 404.7 991.888C405.193 991.605 405.685 991.323 406.178 991.04C412.951 990.346 419.724 989.652 426.496 988.959C405.905 989.656 396.336 989.15 391.404 982.117C391.963 981.938 392.521 981.759 393.079 981.58C397.54 985.979 418.596 984.556 429.786 983.679C427.505 982.39 417.652 983.386 415.57 982.611C414.98 982.389 417.038 981.494 415.671 981.036C412.098 979.846 396.873 978.314 399.086 976.856C400.51 975.919 425.007 974.633 429.786 974.732C418.585 973.048 407.045 972.561 395.811 970.514C402.902 967.661 409.182 964.169 422.125 964.014C426.07 962.517 398.67 960.443 398.034 959.626C402.776 958.749 407.518 957.872 412.26 956.995C408.249 957.229 404.238 957.463 400.228 957.697C400.216 957.404 400.204 957.111 400.192 956.818C410.582 955.459 420.088 952.963 431.979 953.132C431.596 951.582 424.48 951.736 421.028 951.722ZM1558.95 1039.88C1559.19 1041.16 1554.83 1040.95 1552.37 1040.93C1552.74 1041.16 1553.11 1041.4 1553.48 1041.63C1548.24 1041.39 1538.49 1040.89 1538.13 1043.39C1534.39 1043.7 1536.04 1041.53 1534.84 1041.28C1534.36 1041.18 1529.49 1042.45 1525.59 1040.91C1524.66 1040.92 1523.73 1040.92 1522.8 1040.93C1522.62 1041.75 1522.44 1042.56 1522.27 1043.38C1520.97 1042.39 1519.68 1041.4 1518.39 1040.4C1531.9 1040.23 1545.41 1040.05 1558.93 1039.88C1558.93 1039.88 1558.94 1039.88 1558.95 1039.88ZM1424.25 1040.93C1419.33 1040.47 1411.79 1039.74 1413.31 1041.98C1416.42 1041.87 1419.53 1041.75 1422.64 1041.63C1423.18 1041.4 1423.71 1041.17 1424.25 1040.93ZM934.709 1039.17C930.599 1036.97 926.814 1038.87 920.458 1038.47C920.466 1038.94 920.475 1039.41 920.483 1039.87C923.082 1038.75 929.954 1039.5 934.709 1039.17ZM1681.05 1031.45C1681.96 1031.62 1682.86 1031.8 1683.77 1031.97C1680.09 1034.47 1679.43 1032.71 1675.26 1032.95C1675.01 1032.97 1675.1 1033.54 1675.01 1033.54C1673.99 1033.58 1673.05 1032.89 1672.13 1032.9C1670.35 1032.92 1668.91 1033.62 1665.76 1033.6C1663.33 1033.58 1663.31 1032.48 1662.45 1032.51C1661.72 1032.53 1654.51 1035.56 1649.86 1034.25C1641.03 1031.76 1678.36 1031.22 1681.05 1031.45ZM1707.24 1033.52C1706.36 1033.53 1705.49 1033.54 1704.62 1033.55C1707.24 1031.86 1701.94 1032.12 1698.05 1032.15C1698.17 1030.53 1706.4 1031.22 1710.08 1030.74C1709.13 1031.67 1708.19 1032.59 1707.24 1033.52ZM1596.76 1030.05C1600.18 1029.88 1599.61 1031.9 1599.47 1032.51C1598.38 1032.51 1597.29 1032.51 1596.2 1032.51C1596.39 1031.69 1596.57 1030.87 1596.76 1030.05ZM1622.47 1029.34C1621.41 1030.72 1613.99 1031.32 1610.47 1031.43C1610.31 1031.43 1611.28 1030.68 1608.79 1030.75C1608.05 1030.77 1600.7 1033.51 1602.31 1030.4C1609.03 1030.05 1615.74 1029.7 1622.46 1029.34C1622.46 1029.34 1622.47 1029.34 1622.47 1029.34ZM1629.97 1030.16C1628.57 1030.59 1627.17 1031.02 1625.77 1031.45C1625.05 1030.8 1624.32 1030.16 1623.6 1029.52C1625.19 1029.35 1626.78 1029.19 1628.38 1029.03C1628.91 1029.4 1629.44 1029.78 1629.97 1030.16ZM577.82 1028.33C578.145 1029.01 578.47 1029.7 578.795 1030.39C580.056 1030.82 586.183 1027.81 584.243 1027.23C582.102 1027.6 579.961 1027.96 577.82 1028.33ZM551.943 1026.88C550.669 1026.53 549.395 1026.18 548.12 1025.83C546.655 1027 545.189 1028.17 543.724 1029.34C550.09 1030.13 556.864 1031.04 555.771 1027.59C557.229 1027.59 558.686 1027.59 560.143 1027.59C558.916 1029.02 559.081 1029.49 562.894 1030.39C563.729 1028.41 567.672 1029.42 572.186 1028.98C568.902 1028.87 565.619 1028.75 562.336 1028.64C562.336 1028.29 562.336 1027.94 562.336 1027.59C569.654 1027.71 560.559 1025.49 555.792 1026.88C555.416 1026.42 555.04 1025.95 554.665 1025.49C553.758 1025.95 552.85 1026.41 551.943 1026.88ZM1080.9 1027.59C1079.99 1027.23 1079.09 1026.88 1078.18 1026.53C1074.66 1031.11 1081.82 1026.77 1086.92 1030.39C1085.23 1027.64 1093 1027.75 1093.45 1027.57C1092.55 1026.64 1091.66 1025.71 1090.77 1024.79C1087.48 1025.72 1084.19 1026.65 1080.9 1027.59ZM1055.19 1024.42C1058.33 1026.71 1042.88 1026.85 1037.7 1026.35C1036.43 1026.22 1034.19 1024.97 1033.28 1025.13C1032.73 1025.59 1032.18 1026.05 1031.62 1026.52C1030.97 1024.92 1020.85 1026.72 1016.86 1027.58C1016.48 1027 1016.11 1026.41 1015.73 1025.83C1014.28 1026.06 1012.83 1026.29 1011.37 1026.52C1011.55 1025.94 1011.74 1025.36 1011.92 1024.78C1010.82 1025.48 1009.72 1026.18 1008.62 1026.88C1004.3 1027.66 1006.96 1024.48 1003.72 1025.47C1000.11 1026.57 1006.02 1028.46 1005.91 1029.69C1008.84 1029.38 1015.49 1028.67 1018.46 1028.63C1020.17 1028.61 1018.24 1030.81 1025.59 1028.28C1027.2 1028.87 1028.81 1029.46 1030.42 1030.05C1033.38 1029.11 1036.34 1028.18 1039.3 1027.24C1039.85 1028.05 1040.4 1028.87 1040.95 1029.69C1041.27 1029.81 1048.11 1027.96 1047.74 1027.35C1050.51 1028.91 1056.2 1029.19 1062.19 1029.26C1062.77 1028.82 1063.35 1028.38 1063.92 1027.93C1058.13 1028.89 1062.08 1027.47 1060.35 1026.62C1059.35 1026.13 1056.3 1025.16 1055.19 1024.42ZM618.198 1026.54C608.466 1028.53 614.492 1026.88 603.972 1026.88C604.707 1027.94 605.441 1028.99 606.176 1030.05C611.348 1028.12 619.858 1029.4 618.208 1026.54C618.205 1026.54 618.202 1026.54 618.198 1026.54ZM515.262 1030.04C520.829 1029.4 518.035 1027.76 525.091 1027.24C525.095 1027.24 525.098 1027.24 525.101 1027.24C521.453 1027.12 517.804 1027 514.155 1026.88C514.524 1027.94 514.893 1028.99 515.262 1030.04ZM840.681 1028.76C846.018 1029.22 844.968 1028.4 849.811 1030.04C857.022 1028.05 850.918 1028.33 850.918 1026.53C849.27 1027.06 847.621 1027.59 845.973 1028.12C841.977 1026.43 845.767 1025.58 845.767 1025.42C845.764 1025.42 845.76 1025.42 845.757 1025.42C845.757 1024.88 845.886 1024.76 844.353 1024.44C843.129 1025.88 841.905 1027.32 840.681 1028.76ZM863.524 1026.54C861.694 1027.73 860.871 1029.27 865.682 1030.04C865.685 1030.04 865.689 1030.04 865.692 1030.04C866.078 1027.36 870.691 1029.52 872.795 1029.34C873.347 1029.05 873.898 1028.76 874.45 1028.47C870.808 1027.83 867.166 1027.18 863.524 1026.54ZM944.01 1024.08C944.03 1027.03 939.992 1027.32 945.675 1030.04C946.778 1029.99 947.882 1029.93 948.985 1029.88C949.709 1029.23 950.434 1028.58 951.158 1027.93C965.154 1033.29 969.326 1024.17 945.675 1027.58C945.672 1027.58 945.668 1027.58 945.665 1027.59C945.113 1026.42 944.562 1025.25 944.01 1024.08ZM919.361 1024.33C919.183 1025.88 919.006 1027.43 918.828 1028.98C915.737 1025.24 911.744 1028.81 905.684 1026.17C905.135 1026.64 904.587 1027.11 904.039 1027.59C901.774 1026.55 879.525 1026.25 884.345 1028.64C886.449 1029.68 891.033 1028.26 891.427 1028.29C892.764 1028.41 894.508 1029.75 896.765 1029.67C898.069 1029.62 900.818 1028.05 903.48 1028.06C909.431 1028.06 920.294 1032.27 928.119 1028.29C928.682 1028.76 929.246 1029.22 929.809 1029.69C935.616 1029.41 933.677 1027.92 939.08 1029.69C942.813 1022.32 917.361 1030.06 922.661 1024.08C922.658 1024.08 922.654 1024.08 922.651 1024.08C921.554 1024.16 920.458 1024.24 919.361 1024.33ZM759.481 1026.54C759.13 1025.21 752.395 1027.26 753.978 1024.08C751.78 1025.19 749.581 1026.29 747.383 1027.4C747.4 1027.69 747.417 1027.99 747.433 1028.28C749.618 1028.05 751.803 1027.82 753.988 1027.59C753.996 1028.05 754.005 1028.52 754.013 1028.99C757.269 1027.3 770.856 1028.03 770.442 1029.69C771.168 1028.99 771.894 1028.29 772.62 1027.59C779.12 1029.5 784.711 1027.47 791.791 1029.33C792.339 1028.75 792.888 1028.17 793.436 1027.59C793.793 1028.06 794.15 1028.53 794.507 1029C797.086 1029.06 799.665 1029.11 802.244 1029.17C810.648 1027.29 794.319 1024.85 792.339 1025.13C792.076 1025.17 792.117 1026.38 790.473 1026.57C787.553 1026.9 771.21 1025.7 766.156 1026.49C766.113 1025.69 766.069 1024.89 766.026 1024.08C763.844 1024.9 761.663 1025.72 759.481 1026.54ZM975.238 1027.24C975.607 1028.06 975.976 1028.87 976.345 1029.69C982.711 1028.88 986.72 1029.59 985.088 1026.88C985.085 1026.88 985.081 1026.88 985.078 1026.88C981.798 1027 978.518 1027.12 975.238 1027.24ZM1448.36 1027.93C1448.19 1026.31 1445.15 1025.7 1441.22 1026.87C1441.41 1027.34 1441.59 1027.81 1441.78 1028.28C1443.83 1026.9 1446.39 1029.31 1452.72 1028.99C1452.72 1028.17 1452.72 1027.35 1452.72 1026.54C1451.26 1027 1449.81 1027.47 1448.36 1027.93ZM969.745 1026.88C967.805 1025.92 962.359 1028.85 965.942 1028.99C968.682 1029.1 970.786 1027.4 969.745 1026.88ZM493.365 1028.46C494.803 1028.63 496.242 1028.8 497.681 1028.97C498.43 1028.28 499.18 1027.58 499.929 1026.88C499.926 1026.88 499.923 1026.88 499.919 1026.88C497.734 1027.41 495.55 1027.93 493.365 1028.46ZM822.436 1028.9C827.316 1028.8 832.195 1028.7 837.074 1028.59C837.123 1028.14 837.172 1027.69 837.22 1027.23C832.332 1028.89 830.367 1027.1 829.227 1026.99C829.232 1026.99 829.237 1026.99 829.242 1026.99C825.582 1026.64 822.096 1026.37 818.633 1025.83C819.901 1026.85 821.168 1027.88 822.436 1028.9ZM805.71 1026.04C806.532 1029.24 807.605 1029.62 815.102 1027.36C814.805 1026.97 814.508 1026.57 814.211 1026.18C810.327 1026.41 808.061 1027.15 808.743 1025.48C807.732 1025.67 806.721 1025.85 805.71 1026.04ZM882.121 1027.06C881.222 1026.04 874.082 1027.07 874.47 1027.58C874.624 1027.78 883.875 1029.06 882.121 1027.06ZM1502.56 1027.23C1500.92 1026.99 1499.27 1026.76 1497.63 1026.52C1499.81 1026.18 1502 1025.83 1504.19 1025.48C1503.65 1026.06 1503.1 1026.64 1502.56 1027.23ZM1520.62 1022.67C1521.79 1023.08 1517.98 1025.96 1524.99 1026.7C1519.89 1026.76 1514.79 1026.82 1509.68 1026.88C1512.08 1026.42 1514.47 1025.95 1516.86 1025.49C1516.45 1024.66 1516.03 1023.83 1515.61 1023C1517.28 1022.89 1518.95 1022.78 1520.62 1022.67ZM1526.1 1024.78C1523.35 1022.59 1537.82 1022.42 1539.17 1022.69C1539.47 1022.76 1540.9 1024.42 1541.42 1024.77C1539.24 1024.77 1537.05 1024.78 1534.87 1024.78C1535.6 1025.3 1536.33 1025.82 1537.06 1026.35C1534.5 1026.53 1531.95 1026.71 1529.39 1026.88C1530.48 1026.36 1531.57 1025.83 1532.67 1025.31C1530.48 1025.13 1528.29 1024.96 1526.1 1024.78ZM1468.05 1025.31C1469.88 1025.36 1471.71 1025.42 1473.54 1025.47C1473.17 1024.66 1472.81 1023.84 1472.44 1023.02C1471.34 1023.02 1470.25 1023.02 1469.15 1023.02C1468.79 1023.78 1468.42 1024.55 1468.05 1025.31ZM1505.32 1024.25C1502.66 1028.19 1495.4 1019.58 1503.88 1022.77C1504.74 1023.1 1505.58 1023.87 1505.32 1024.25ZM1544.59 1023.16C1550.28 1020.29 1548.99 1026.63 1543.62 1024.77C1543.35 1024.67 1544.16 1023.37 1544.59 1023.16ZM1587.24 1023.07C1587.7 1023.09 1588.5 1025.14 1592.9 1023.19C1593.63 1023.43 1594.35 1023.66 1595.08 1023.89C1593.38 1024.85 1578.85 1025.41 1580.85 1023.38C1583.08 1023.35 1584.94 1023.01 1587.24 1023.07ZM1573.16 1015.48C1570.98 1015.53 1568.8 1015.59 1566.62 1015.65C1567.34 1016.29 1568.06 1016.93 1568.78 1017.58C1567.7 1017.75 1566.63 1017.93 1565.56 1018.1C1563.72 1016.99 1561.89 1015.88 1560.05 1014.78C1564.8 1014.6 1569.54 1014.42 1574.28 1014.24C1573.91 1014.66 1573.53 1015.07 1573.16 1015.48ZM1515.16 1013.89C1519.36 1014.7 1524.5 1013.84 1531.32 1013.98C1531.32 1013.98 1531.33 1013.98 1531.33 1013.98C1531.67 1013.99 1532.27 1014.87 1533.37 1014.91C1534.3 1014.94 1552.71 1013.97 1551.28 1015.47C1544.15 1016.81 1541.49 1014.77 1539.78 1018.1C1539.43 1017.39 1539.09 1016.69 1538.74 1015.99C1531.89 1014.77 1529.94 1017.2 1526.09 1018.1C1526.1 1017.57 1526.12 1017.04 1526.13 1016.51C1523.56 1016.46 1521 1016.4 1518.43 1016.35C1518.79 1016.7 1519.15 1017.05 1519.51 1017.39C1518.6 1017.39 1517.7 1017.39 1516.79 1017.39C1514.57 1015.83 1511.77 1015.46 1515.16 1013.89ZM1583.06 1016.35C1585.07 1012.34 1604.73 1015.09 1613.7 1014.24C1608.99 1016.66 1601.69 1015 1596.55 1014.97C1586.61 1014.93 1593.48 1016.4 1591.79 1017.05C1590.96 1017.37 1585.33 1014.8 1583.06 1016.35ZM1499.83 1014.59C1504.78 1014.92 1507.56 1013.99 1511.84 1015.47C1511.48 1015.76 1511.12 1016.05 1510.77 1016.34C1509.3 1016.08 1497.33 1015.23 1499.83 1014.59ZM1626.86 1015.29C1617.29 1013.85 1622.01 1017.49 1617.03 1014.76C1620.31 1014.59 1623.58 1014.42 1626.86 1014.24C1626.86 1014.59 1626.86 1014.94 1626.86 1015.29ZM958.794 1011.79C954.762 1011.7 950.259 1010.97 947.848 1012.48C950.588 1012.71 953.328 1012.95 956.068 1013.18C956.976 1012.72 957.885 1012.25 958.794 1011.79ZM1073.78 997.003C1072.86 996.64 1069.22 997.711 1068.83 997.711C1068.12 997.711 1068.32 997.183 1068.31 997.045C1063.64 997.141 1067.94 998.777 1064.49 999.133C1063.9 999.191 1055.79 998.383 1052.49 998.449C1047.42 998.551 1042.35 998.445 1040.46 998.474C1037.26 998.52 1031.32 999.747 1026.06 999.81C1023.89 999.834 1023.13 998.852 1020.95 998.876C1006.95 999.042 979.401 1000.39 966.984 999.768C963.916 999.613 960.99 998.326 959.368 998.431C958.088 998.901 956.809 999.371 955.529 999.841C951.595 995.61 950.279 999.373 946.037 999.768C943.343 1000.02 942.083 998.763 941.721 998.767C939.321 998.791 938.137 999.388 936.253 999.487C934.138 999.596 931.099 999.031 930.342 999.133C929.878 999.201 931.361 1000.87 923.154 1000.84C914.79 1000.8 906.533 1000.63 898.027 1000.55C900.864 1005.58 903.307 1002.14 906.78 1001.95C907.712 1001.9 907.121 1002.7 907.932 1002.67C910.223 1002.57 914.608 1001.79 916.504 1001.98C918.551 1002.18 917.852 1004.03 920.448 1003.35C920.579 1003.31 920.164 1002.55 920.775 1002.42C926.912 1001.16 928.921 1002.49 936.681 1002.53C941.822 1002.55 973.045 1001.8 974.117 1002.29C979.706 1004.97 946.805 1004.99 942.959 1004.78C941.612 1004.7 943.024 1003.86 941.797 1003.7C941.276 1003.63 936.599 1005.24 931.977 1005.38C926.388 1005.54 915.155 1004.44 909.829 1004.48C864.039 1004.81 818.884 1003.84 773.138 1003.82C772.163 1003.82 770.879 1004.78 767.701 1004.78C708.386 1004.77 646.91 1004.01 586.839 1004.46C573.742 1004.56 560.754 1005.47 547.537 1004.75C545.897 1005.45 544.257 1006.16 542.617 1006.86C546.812 1006.3 554.498 1007.89 555.198 1007.92C555.45 1007.92 557.04 1007.13 559.605 1007.17C563.21 1007.23 564.792 1007.92 565.088 1007.92C566.005 1007.92 565.404 1007.19 566.28 1007.19C572.812 1007.22 577.866 1007.01 583.861 1007.01C590.633 1007 594.066 1008.36 598.997 1006.87C599.556 1007.45 600.114 1008.03 600.672 1008.62C604.357 1006.09 626.298 1006.37 635.186 1006.51C637.99 1006.55 637.498 1007.57 638.44 1007.57C639.042 1007.57 638.805 1006.23 646.142 1006.49C649.835 1006.63 650.804 1007.61 652.656 1007.57C653.663 1007.56 653.499 1006.58 654.945 1006.58C663.307 1006.58 670.135 1006.9 678.321 1007.08C680.623 1007.13 680.648 1007.94 681.163 1007.93C683.06 1007.89 686.358 1006.52 691.179 1006.52C699.114 1006.53 714.928 1006.54 721.416 1007.2C722.37 1007.3 723.16 1008.27 723.861 1008.26C724.923 1008.23 725.34 1007.22 725.526 1007.21C729.077 1007.2 726.941 1008.14 729.319 1007.91C730.601 1007.79 731.938 1006.63 734.918 1006.5C738.852 1006.33 738.078 1007.7 739.722 1007.56C739.895 1007.54 739.947 1006.59 741.563 1006.55C747.689 1006.44 756.576 1006.22 762.374 1006.22C764.039 1006.22 765.278 1006.87 767.6 1006.88C772.28 1006.9 798.88 1006.49 801.062 1006.86C801.292 1006.9 798.927 1008.31 802.697 1008.26C803.792 1007.68 804.887 1007.09 805.982 1006.51C807.813 1007.44 809.644 1008.38 811.475 1009.32C811.409 1006.08 822.181 1005.58 822.074 1008.89C823.253 1009.03 824.431 1009.16 825.61 1009.29C828.065 1007.01 829.699 1007.85 834.444 1006.51C835.183 1007.21 835.922 1007.91 836.662 1008.61C836.848 1008.14 837.034 1007.68 837.22 1007.21C839.752 1009.74 843.904 1007.2 844.409 1007.18C846.348 1007.13 847.805 1007.77 848.715 1007.75C852.112 1007.68 859.466 1006.8 863.434 1007.21C863.62 1007.23 863.436 1008.31 864.565 1008.45C866.601 1008.69 866.8 1007.1 869.515 1008.97C870.064 1008.5 870.612 1008.03 871.16 1007.56C871.742 1007.8 872.324 1008.05 872.906 1008.29C876.34 1008.16 879.774 1008.04 883.208 1007.92C880.084 1009.75 883.679 1010.78 887.076 1009.33C888.226 1008.84 887.206 1007.72 887.589 1007.56C888.115 1007.33 903.527 1007.9 904.547 1008.62C905.276 1008.27 906.005 1007.91 906.735 1007.56C907.104 1008.27 907.473 1008.97 907.842 1009.67C908.244 1009.43 908.646 1009.18 909.049 1008.93C913.06 1010.17 923.47 1007.33 925.357 1007.56C926.365 1007.68 925.459 1010.68 930.292 1010.37C930.46 1009.55 930.627 1008.72 930.795 1007.9C931.902 1007.78 933.008 1007.66 934.115 1007.54C936.192 1007.62 939.215 1009.04 939.312 1010.02C939.96 1009.44 940.609 1008.85 941.258 1008.26C943.001 1010.17 952.294 1009.5 956.032 1008.29C957.126 1008.86 958.219 1009.44 959.312 1010.02C960.781 1009.32 962.25 1008.62 963.719 1007.92C967.122 1007.7 963.527 1008.87 964.252 1008.97C965.786 1009.17 973.606 1007.2 973.09 1009.65C974.157 1009.65 975.223 1009.66 976.29 1009.67C976.838 1008.97 977.386 1008.27 977.935 1007.57C979.765 1009.98 982.933 1009.13 989.429 1010.01C989.974 1009.45 990.519 1008.9 991.064 1008.34C993.073 1009.13 995.081 1009.92 997.09 1010.71C997.503 1009.79 997.915 1008.87 998.328 1007.95C999.201 1007.82 1000.07 1007.69 1000.95 1007.56C1002.72 1009.62 1005.91 1007.39 1007.53 1008.24C1009.9 1009.48 1008.07 1010.96 1003.68 1011.24C1004 1012.74 1017.1 1012.05 1020.11 1011.94C1019.91 1011.65 1019.72 1011.36 1019.52 1011.06C1016.43 1011.3 1013.34 1011.53 1010.25 1011.76C1007.67 1007.99 1016.05 1009 1019.9 1008.51C1020.25 1008.47 1022.24 1007.04 1026.12 1007.17C1027.62 1007.22 1033.48 1009.31 1034.6 1009.43C1043.62 1010.38 1036.99 1007.4 1045.82 1010.02C1043.98 1008.01 1049.05 1009.68 1054.34 1009.29C1055.24 1009.22 1062.86 1007.6 1063.38 1007.56C1066.59 1007.29 1063.09 1009.07 1067.74 1008.61C1068.3 1008.14 1068.85 1007.67 1069.41 1007.21C1070.49 1007.21 1071.57 1007.21 1072.66 1007.21C1079.22 1011.36 1080.75 1008.3 1083.08 1007.91C1084.02 1007.75 1082.81 1008.83 1085.25 1008.61C1086.17 1008.52 1087.19 1007.62 1089.67 1007.56C1097.42 1007.36 1100.05 1011.22 1107.17 1007.2C1108.26 1007.78 1109.36 1008.37 1110.45 1008.95C1111.19 1008.25 1111.93 1007.55 1112.66 1006.85C1118.31 1008.88 1116.27 1006.8 1118.31 1006.83C1123.69 1006.89 1134.7 1007.29 1135.67 1008.96C1140.31 1005.12 1145.87 1009.45 1147.7 1009.3C1148.79 1008.84 1149.88 1008.37 1150.96 1007.9C1152.24 1008.37 1153.52 1008.84 1154.8 1009.31C1154.18 1005.54 1160.81 1009.24 1161.44 1009.3C1162.18 1009.36 1172.37 1008.24 1176.16 1008.26C1179.95 1008.28 1186.55 1009.31 1187.13 1009.31C1187.8 1009.31 1194.25 1008.28 1199.29 1008.29C1203.7 1008.3 1229.84 1009.76 1228.19 1008.08C1226.48 1007.62 1224.05 1007.21 1221.94 1006.99C1215.41 1006.32 1177.07 1005.47 1167.27 1005.2C1147.62 1004.67 1127.13 1004.77 1107.39 1004.4C1106.23 1004.38 1106.05 1003.4 1105.06 1003.38C1103.54 1003.35 1099.71 1004.33 1098.22 1004.31C1092.65 1004.22 1085.87 1004.06 1082.89 1004.04C1076.23 1003.99 1071.66 1003.4 1066.62 1003.31C1065.04 1003.28 1057.06 1004.49 1051.59 1003.98C1050.6 1003.7 1049.61 1003.43 1048.62 1003.15C1051.44 1002.83 1058.83 1002 1062.26 1001.91C1067.36 1001.77 1070.03 1002.56 1071.91 1002.55C1073.49 1002.54 1081.55 1001.64 1085.23 1001.62C1086.37 1001.61 1086.6 1002.63 1087.58 1002.63C1092.87 1002.61 1099.84 1002.58 1104.43 1001.57C1102.56 1001.9 1114.26 1002.53 1114.88 1002.53C1115.93 1002.53 1117.07 1001.57 1119.22 1001.57C1123.35 1001.57 1122.82 1003.57 1127.99 1001.57C1129.26 1002.15 1130.54 1002.74 1131.82 1003.32C1131.9 1000.65 1148.04 1004.28 1152.63 1001.04C1152.75 1000.67 1131.77 999.631 1130.04 999.578C1119.65 999.258 1104.28 999.912 1094.2 999.444C1091.16 999.303 1081.62 997.68 1080.9 997.711C1079.74 997.756 1080.79 998.685 1080.29 998.718C1070.02 999.408 1075.14 997.542 1073.78 997.003ZM1526.09 1012.13C1522.97 1012.02 1519.85 1011.91 1516.73 1011.8C1516.96 1011.22 1517.18 1010.63 1517.41 1010.05C1518.84 1010.27 1520.27 1010.5 1521.7 1010.73C1522.8 1010.38 1523.89 1010.03 1524.99 1009.68C1525.36 1010.5 1525.72 1011.32 1526.09 1012.13ZM1533.77 1009.68C1536.48 1009.38 1536.61 1010.62 1537.24 1010.68C1539.1 1010.86 1540.71 1010.36 1542.52 1010.38C1540.43 1013.32 1536 1011.97 1533.77 1009.68ZM1477.91 1008.62C1478.52 1008.76 1482.59 1011.92 1487.22 1008.98C1490.69 1009.92 1494.15 1010.85 1497.62 1011.78C1491.73 1010.36 1483.59 1011.84 1480.7 1011.78C1479.61 1011.76 1479.4 1010.79 1478.53 1010.78C1473.48 1010.7 1468.58 1012.9 1468.07 1009.69C1472.84 1010.62 1477.13 1008.45 1477.91 1008.62ZM1508.34 1009.76C1509.14 1010.44 1509.95 1011.11 1510.76 1011.78C1507.84 1011.78 1504.93 1011.78 1502.01 1011.78C1502.8 1011.1 1503.59 1010.42 1504.38 1009.74C1505.7 1009.75 1507.02 1009.76 1508.34 1009.76ZM1284.14 1007.54C1285.94 1007.55 1287.73 1007.56 1289.53 1007.57C1289.43 1007.08 1287.38 1007.08 1286.62 1006.75C1286.62 1006.75 1286.62 1006.75 1286.63 1006.75C1285.78 1006.38 1286.15 1005.75 1284.61 1005.47C1284.45 1006.16 1284.3 1006.85 1284.14 1007.54ZM540.439 1004.76C537.426 1004.72 509.602 1004.72 511.972 1006.51C513.167 1007.4 522.683 1006.62 525.489 1006.63C529.271 1006.65 539.485 1008.58 540.439 1004.76ZM491.161 1004.41C490.679 1006.19 508.069 1006.47 509.769 1006.16C509.408 1005.91 508.851 1005.35 508.37 1005.22C506.025 1004.6 494.91 1004.9 491.161 1004.41ZM1183.48 1002.41C1184.88 1003.31 1186.28 1004.21 1187.68 1005.11C1187.31 1003.94 1186.94 1002.77 1186.57 1001.6C1185.54 1001.87 1184.51 1002.14 1183.48 1002.41ZM1047.49 1003.7C1024.14 1003.64 1000.79 1003.58 977.437 1003.53C979.491 1003.04 981.545 1002.55 983.599 1002.07C1003.72 1002.24 1025.18 1002.73 1044.61 1001.98C1045.57 1002.55 1046.53 1003.13 1047.49 1003.7ZM1471.33 1003.36C1465.35 1003.34 1460.35 1004.2 1453.84 1002.83C1460.05 1001.51 1463.12 1003.56 1469.14 1001.6C1469.15 1001.6 1469.15 1001.6 1469.15 1001.6C1469.88 1002.19 1470.61 1002.77 1471.33 1003.36ZM1337.75 1003C1339.57 1002.18 1341.39 1001.37 1343.2 1000.55C1341.02 1000.55 1338.83 1000.55 1336.64 1000.55C1337.01 1001.37 1337.38 1002.18 1337.75 1003ZM843.795 999.151C837.537 1000.94 821.526 997.705 816.44 999.853C816.111 999.994 819.135 1000.9 814.247 1002.65C817.939 1002.3 820.546 1001.93 820.821 1000.55C821.918 1001.02 823.015 1001.48 824.111 1001.95C825.93 1001.6 827.75 1001.24 829.569 1000.89C829.372 1002.26 829.516 1002.19 832.311 1001.25C833.585 1001.6 834.859 1001.95 836.134 1002.29C836.674 1001.71 837.214 1001.13 837.754 1000.55C838.857 1001.36 839.96 1002.18 841.063 1002.99C845.364 1002.11 842.745 1000.53 843.795 999.151ZM865.702 999.487C864.685 999.184 835.668 1000.17 848.856 1002.91C852.283 1002.82 855.71 1002.74 859.138 1002.65C856.299 998.111 865.639 1002.17 866.406 1002.26C870.077 1002.71 874.755 1001.63 877.418 1001.68C879.708 1001.73 881.069 1002.55 882.68 1002.53C888.167 1002.46 896.835 1002.43 898.027 1000.55C893.762 1000.51 889.429 1000.49 884.994 1000.54C880.303 1000.59 876.179 998.814 867.367 1001.24C865.188 1000.98 865.965 999.564 865.702 999.487ZM1348.68 1000.74C1348.46 1002.62 1359.54 1002.17 1359.61 1001.43C1359.63 1000.99 1356.02 1001 1355.51 1000.84C1355.51 1000.84 1355.5 1000.84 1355.5 1000.84C1355.28 1000.76 1356.37 1000.04 1354.68 999.841C1352.68 1000.14 1350.68 1000.44 1348.68 1000.74ZM583.715 1000.54C582.218 999.484 548.021 999.865 547.014 1000.37C546.74 1000.51 547.122 1000.98 547.014 1001.24C554.992 999.751 566.333 1001.52 573.906 1001.64C576.017 1001.67 575.386 1000.92 575.506 1000.9C575.511 1000.9 575.516 1000.9 575.521 1000.9C576.719 1000.9 582.126 1002.73 583.715 1000.54ZM805.489 1000.71C806.943 1001.01 808.396 1001.3 809.85 1001.6C810.219 1001.01 810.588 1000.43 810.957 999.847C810.953 999.847 810.95 999.847 810.947 999.847C809.127 1000.14 807.308 1000.42 805.489 1000.71ZM755.12 998.791C755.474 999.202 755.827 999.613 756.181 1000.02C759.842 1000.08 763.502 1000.14 767.162 1000.19C766.794 1000.43 766.425 1000.66 766.056 1000.89C771.59 1001.51 773.883 1000.07 776.831 1000.27C776.827 1000.27 776.824 1000.27 776.821 1000.27C777.138 1000.3 777.522 1001.15 778.702 1001.18C781.408 1001.25 789.164 1001.57 790.101 1000.71C792.084 998.869 776.476 999.742 773.566 999.658C772.251 999.619 770.669 998.87 769.869 998.852C768.992 998.836 767.798 999.847 765.663 999.816C765.039 999.806 758.113 998.615 755.12 998.791ZM690.51 1000.02C691.639 1000.94 693.995 1000.05 694.861 1000.2C695.068 1000.24 693.459 1001.01 695.409 1001.24C695.961 1000.72 696.513 1000.19 697.064 999.658C694.879 999.778 692.695 999.898 690.51 1000.02ZM1367.29 999.847C1366.97 999.648 1361.03 999.721 1360.74 999.847C1357.18 1001.54 1369.49 1001.35 1367.29 999.847ZM1517.33 997.912C1514.6 995.455 1547.04 997.871 1550.19 997.741C1550.03 999.286 1542.31 997.733 1546.36 999.853C1542.5 998.687 1531.83 999.306 1529.32 998.968C1527.8 998.764 1527.42 997.43 1527.18 997.387C1526.28 997.237 1518.29 998.778 1517.33 997.912ZM1577 998.791C1573.92 998.498 1570.83 998.205 1567.75 997.912C1571.39 997.737 1575.03 997.562 1578.67 997.387C1578.11 997.855 1577.56 998.323 1577 998.791ZM1580.88 998.089C1580.78 996.592 1591.25 997.732 1594 997.387C1590.9 999.934 1585.72 997.533 1580.88 998.089ZM1406.73 995.983C1401.91 994.994 1399.83 999.557 1405.7 997.57C1405.87 997.505 1406.93 996.036 1406.73 995.983ZM842.306 992.73C841.484 992.702 831.258 991.223 830.666 991.955C828.794 994.293 835.505 993.355 837.754 994.238C841.381 995.668 836.046 996.847 844.902 995.983C844.539 996.451 844.177 996.919 843.815 997.387C848.998 997.542 847.302 994.301 848.232 993.884C848.516 993.757 851.757 994.03 852.342 993.823C859.645 991.211 843.069 992.752 842.306 992.73ZM1287.35 995.636C1277.75 994.262 1281.88 996.278 1272.03 996.154C1271.7 997.183 1286.1 996.537 1287.35 995.636ZM935.79 994.58C925.861 994.985 917.696 993.639 908.435 995.446C909.038 998.229 938.366 995.298 935.79 994.58ZM469.264 991.76C507.897 996.716 552.458 995.084 593.59 995.007C598.072 995 598.502 996.103 600.124 995.983C601.187 995.906 601.001 995.017 602.413 995.013C653.453 994.869 702.324 993.706 751.216 994.238C754.296 994.273 769.278 996.182 772.48 993.304C774.901 991.121 764.137 992.823 762.343 992.804C760.995 992.79 760.938 991.764 760.039 991.76C759.086 991.756 759.874 992.457 758.767 992.468C754.076 992.517 748.958 992.243 744.717 992.303C703.124 992.877 662.66 992.713 621.287 992.614C616.279 992.604 617.308 991.782 617.056 991.778C617.053 991.78 617.05 991.782 617.046 991.784C590.195 991.707 559.528 993.551 531.087 992.846C511.06 992.281 491.032 991.715 471.005 991.15C470.425 991.353 469.844 991.557 469.264 991.76ZM863.509 995.629C861.01 992.53 860.451 995.655 851.486 994.391C850.757 994.919 850.028 995.448 849.298 995.977C854.04 995.861 858.782 995.745 863.524 995.629C863.519 995.629 863.514 995.629 863.509 995.629ZM804.297 994.5C802.781 990.314 782.734 993.273 773.707 992.474C772.052 994.577 785.175 993.632 788.27 993.853C789.815 993.963 798.091 996.125 804.382 994.928C804.354 994.785 804.325 994.643 804.297 994.5ZM1483.38 991.76C1481.92 991.882 1480.46 992.004 1479 992.126C1482.65 992.59 1486.31 993.054 1489.96 993.518C1484.13 993.219 1478.31 992.92 1472.48 992.621C1473.57 991.752 1474.65 990.883 1475.74 990.014C1478.29 990.596 1480.83 991.178 1483.38 991.76ZM1464.49 992.206C1474.68 991.878 1464.04 994.204 1461.49 993.17C1459.97 992.55 1463.45 992.241 1464.49 992.206ZM1437.96 990.71C1442.72 989.185 1452.33 989.08 1448.91 992.126C1443.77 990.7 1440.46 991.885 1433.01 991.064C1434.09 990.48 1435.18 989.896 1436.27 989.313C1436.28 989.313 1436.28 989.313 1436.29 989.313C1436.84 989.778 1437.4 990.244 1437.96 990.71ZM1469.14 990.362C1475.82 992.112 1456.49 991.514 1462.56 990.362C1462.85 990.309 1468.88 990.295 1469.14 990.362ZM511.972 988.611C511.167 989.606 516.305 989.587 518.014 989.654C525.422 989.95 534.923 989.517 542.627 989.654C542.047 989.327 541.467 988.999 540.887 988.672C531.248 988.651 521.61 988.631 511.972 988.611ZM566.728 989.66C572.021 989.66 577.315 989.66 582.608 989.66C583.102 989.66 585.416 988.806 583.695 988.598C578.039 988.952 572.383 989.306 566.728 989.66ZM896.926 989.66C892.867 989.103 904.555 986.246 904.029 989.306C901.661 989.424 899.293 989.542 896.926 989.66ZM934.694 988.44C932.148 988.731 929.603 989.022 927.058 989.313C927.054 988.961 927.051 988.609 927.047 988.257C929.596 988.318 932.145 988.379 934.694 988.44ZM491.161 987.909C493.858 989.113 500.29 988.928 504.301 988.952C501.538 987.918 494.953 988.426 491.161 987.909ZM836.114 988.428C836.442 989.248 820.297 989.042 825.887 987.598C829.296 987.874 832.705 988.151 836.114 988.428ZM803.321 987.213C806.784 987.033 809.466 987.315 808.753 988.605C806.917 988.55 805.081 988.495 803.245 988.44C803.27 988.031 803.296 987.622 803.321 987.213ZM1419.86 988.257C1414.02 988.373 1408.19 988.489 1402.35 988.605C1402.57 988.253 1402.78 987.901 1403 987.549C1408.63 987.435 1414.25 987.321 1419.88 987.207C1419.87 987.557 1419.86 987.907 1419.86 988.257ZM487.862 984.747C483.854 984.977 479.846 985.207 475.839 985.437C479.85 985.673 483.861 985.909 487.872 986.145C487.872 985.677 487.872 985.209 487.872 984.741C487.868 984.743 487.865 984.745 487.862 984.747ZM1499.79 983.697C1481.97 982.056 1504.71 980.321 1509.42 982.733C1509.42 982.731 1509.43 982.729 1509.43 982.727C1509.84 982.94 1508.97 983.971 1509.66 984.387C1507.84 983.921 1506.03 983.455 1504.22 982.989C1502.56 983.569 1500.91 984.149 1499.25 984.729C1498.71 984.501 1498.16 984.273 1497.62 984.045C1498.34 983.929 1499.07 983.813 1499.79 983.697ZM1571.74 982.782C1587.9 982.972 1571.36 985.55 1563.36 983.514C1563.42 983.043 1570.25 982.764 1571.74 982.782ZM1529.38 983.337C1526.83 983.571 1524.28 983.805 1521.74 984.039C1521.41 983.744 1521.09 983.449 1520.76 983.154C1522.72 982.861 1524.67 982.568 1526.63 982.275C1527.54 982.629 1528.46 982.983 1529.38 983.337ZM1445.61 978.784C1441.51 978.46 1436.29 981.74 1449.45 980.878C1449.44 980.526 1449.43 980.174 1449.43 979.822C1448.9 979.878 1447.36 980.208 1447.28 980.182C1447.04 980.094 1447.32 978.919 1445.61 978.784ZM1601.67 973.511C1602.13 973.377 1602.38 969.665 1607.17 973.505C1608.61 973.271 1610.06 973.037 1611.51 972.803C1611.88 973.621 1612.26 974.439 1612.63 975.257C1607.03 974.623 1606.44 976.277 1606.03 976.312C1604.17 976.467 1605.55 975.616 1604.35 975.604C1601.24 975.576 1594.2 976.148 1597.39 973.719C1598.54 972.848 1601.21 973.645 1601.67 973.511ZM1590.72 971.399C1591.4 971.709 1589.21 972.795 1589.72 973.102C1590.17 973.37 1596.92 974.478 1595.09 976.312C1593.99 976.235 1592.88 976.158 1591.77 976.081C1591.39 975.578 1591.02 975.076 1590.64 974.573C1589.57 975.037 1588.5 975.501 1587.42 975.965C1585.61 974.725 1581.77 973.118 1586.34 972.107C1584.66 972.213 1582.98 972.319 1581.3 972.425C1580.43 973.019 1579.56 973.613 1578.69 974.207C1579.14 973.301 1579.6 972.396 1580.05 971.491C1583.61 971.46 1587.16 971.43 1590.72 971.399ZM1642.8 971.747C1642.6 972.215 1642.39 972.683 1642.19 973.151C1648.36 972.281 1657.97 971.95 1652.51 974.884C1644.15 975.128 1635.79 975.373 1627.44 975.617C1626.88 975.265 1626.32 974.913 1625.77 974.561C1632.01 975.917 1630.08 970.146 1635.5 971.802C1636.42 972.083 1633.76 974.101 1639.51 972.809C1639.31 972.339 1639.1 971.869 1638.9 971.399C1640.2 971.515 1641.5 971.631 1642.8 971.747ZM1695.85 972.449C1685.28 971.773 1696.92 970.065 1698.87 971.485C1698.87 971.485 1698.86 971.485 1698.86 971.485C1704.21 975.369 1692.71 973.492 1692.01 973.517C1691.08 973.552 1688.91 976.333 1683.84 972.278C1687.84 972.335 1691.84 972.392 1695.85 972.449ZM1661.35 971.753C1662.24 971.662 1661.75 972.368 1662.13 972.357C1662.14 972.357 1662.14 972.357 1662.14 972.357C1667.8 972.206 1681.25 971.574 1682.71 973.853C1678.52 974.043 1659.79 974.535 1658.66 972.986C1659.56 972.575 1660.46 972.164 1661.35 971.753ZM1621.56 973.45C1618.09 971.974 1625.9 971.778 1627.95 972.461C1628.34 972.609 1625.16 974.979 1621.56 973.45ZM1355.24 969.642C1347.6 970.529 1357.63 971.415 1354.16 972.803C1355.62 972.685 1357.08 972.567 1358.54 972.449C1357.44 971.513 1356.34 970.577 1355.24 969.642ZM1006.96 966.84C1005.18 966.676 1006.03 967.523 1005.87 967.536C1004.7 967.512 1003.6 966.822 1003.15 966.895C994.853 968.288 1000.37 969 1000.46 969.165C1000.63 970.004 998.45 970.984 1001.47 971.942C1003.31 971.645 1005.14 971.348 1006.97 971.051C1007.89 971.517 1008.8 971.983 1009.71 972.449C1013.35 971.449 1008.58 971.175 1008.04 969.849C1007.83 969.328 1011.26 968.704 1006.96 966.84ZM1341.55 966.834C1340.31 968.306 1337.28 970.164 1340.26 971.643C1340.26 971.643 1340.26 971.643 1340.27 971.643C1340.82 971.914 1343.06 972.063 1343.75 972.443C1348.67 970.481 1346.79 968.454 1341.55 966.834ZM1039.87 964.203C1042.83 964.547 1045.78 964.891 1048.74 965.235C1048.69 966.118 1048.64 967.001 1048.59 967.884C1047.01 967.646 1045.43 967.408 1043.84 967.17C1043.29 967.572 1042.73 967.975 1042.18 968.378C1044.14 969.385 1046.11 970.392 1048.07 971.399C1050.44 971.047 1052.81 970.695 1055.18 970.343C1054.09 969.878 1053 969.412 1051.91 968.946C1057.7 968.431 1056.44 970.578 1061.23 971.399C1062.87 970.581 1064.51 969.764 1066.15 968.946C1068.52 969.768 1070.9 970.59 1073.27 971.411C1077.26 971.028 1077.61 970.402 1074.93 969.465C1076.91 968.394 1079.08 970.078 1081.47 969.642C1081.67 969.606 1081.3 968.598 1081.47 968.586C1093.82 967.906 1093.16 970.554 1095.14 970.667C1096.53 970.744 1102.09 968.957 1102.17 968.348C1102.28 967.526 1090.72 964.288 1108.82 964.203C1099.47 961.964 1088.83 964.244 1095.71 967.53C1092.74 967.199 1079.68 968.019 1078.85 967.92C1077.63 967.772 1078.06 966.525 1076.54 966.492C1075.64 966.475 1073.26 969.324 1066.15 966.834C1065.24 967.302 1064.33 967.77 1063.42 968.238C1062.57 967.853 1061.72 967.469 1060.87 967.084C1062.62 965.713 1064.37 964.342 1066.13 962.971C1059.18 964.46 1053.41 961.662 1049.18 964.02C1045.53 963.746 1043.75 963.474 1045.32 962.269C1044.22 962.269 1043.12 962.269 1042.03 962.269C1041.31 962.914 1040.59 963.559 1039.87 964.203ZM1319.1 968.94C1315.47 967.571 1314.16 970.524 1314.73 970.691C1317.92 971.61 1321 969.652 1319.1 968.94ZM1013.56 968.409C1017.58 969.17 1021.59 969.93 1025.6 970.691C1025.6 969.757 1025.6 968.824 1025.6 967.89C1021.59 968.063 1017.58 968.236 1013.56 968.409ZM1356.35 967.542C1356.72 968.242 1357.09 968.942 1357.46 969.642C1361.85 967.085 1366.22 970.753 1368.39 969.996C1368.86 969.83 1367.91 968.594 1367.01 968.329C1366.45 968.164 1357.13 967.306 1356.35 967.542ZM1539.24 967.878C1537.61 968.348 1535.97 968.818 1534.33 969.288C1534.42 968.5 1534.51 967.713 1534.6 966.926C1535.41 966.779 1536.22 966.633 1537.03 966.486C1537.77 966.95 1538.5 967.414 1539.24 967.878ZM1520.62 969.129C1517.7 969.066 1514.78 969.003 1511.86 968.94C1523 968.218 1513.86 967.865 1520.62 966.84C1520.62 967.603 1520.62 968.366 1520.62 969.129ZM1491.07 967.536C1491.43 967.066 1491.79 966.596 1492.15 966.126C1495.07 966.126 1497.99 966.126 1500.91 966.126C1499.06 964.494 1497.21 962.863 1495.37 961.231C1494.3 961.227 1493.23 961.223 1492.16 961.219C1491.8 963.325 1491.43 965.43 1491.07 967.536ZM928.109 963.331C926.344 963.302 920.205 964.728 920.468 965.253C923.018 965.898 925.569 966.543 928.119 967.188C928.131 966.252 928.142 965.316 928.154 964.38C928.515 964.846 928.875 965.312 929.236 965.778C930.686 965.428 932.137 965.078 933.587 964.728C934.318 965.546 935.049 966.364 935.78 967.182C936.515 966.248 937.249 965.314 937.984 964.38C930.98 962.725 931.221 964.38 929.764 964.362C929.025 964.354 928.557 963.775 928.295 963.483C928.233 963.432 928.171 963.382 928.109 963.331ZM1016.34 962.452C1007.97 962.219 1003.2 964.683 997.146 962.623C1001.03 967.012 1026.08 962.478 1034.91 966.138C1035.83 965.434 1036.75 964.73 1037.67 964.026C1032.86 964.653 1029.52 963.203 1027.18 962.995C1025.31 962.829 1025.51 963.567 1025.37 963.556C1025.36 963.556 1025.35 963.556 1025.35 963.556C1020.98 963.254 1019.63 962.543 1016.34 962.452ZM1362.57 964.1C1360.32 962.988 1356.39 963.099 1356.34 964.722C1358.53 965.192 1360.72 965.662 1362.91 966.132C1362.46 965.716 1362.95 964.29 1362.57 964.1ZM1487.68 963.001C1485.92 962.473 1481.78 962.936 1483.57 964.338C1483.89 964.587 1488.01 963.601 1485.59 966.132C1489.61 966.093 1488.67 963.305 1487.68 963.001ZM1159.23 965.778C1160.7 965.731 1162.18 965.685 1163.66 965.638C1164 964.983 1164.34 964.328 1164.69 963.672C1162.87 964.374 1161.05 965.076 1159.23 965.778ZM1381.53 962.977C1383.49 966.183 1386.84 963.063 1390.53 965.699C1391.88 965.719 1393.24 965.739 1394.6 965.76C1394.61 965.76 1394.61 965.76 1394.61 965.76C1394.65 964.885 1394.69 964.01 1394.73 963.135C1390.33 963.082 1385.93 963.03 1381.53 962.977ZM1067.22 964.197C1068.13 964.604 1069.04 965.011 1069.95 965.418C1071.57 964.944 1073.19 964.47 1074.8 963.996C1073.93 963.656 1073.05 963.316 1072.18 962.977C1070.53 963.384 1068.88 963.79 1067.22 964.197ZM1405.44 962.702C1400.68 962.3 1398.89 965.087 1404.97 965.095C1407.54 965.095 1410.42 963.122 1405.44 962.702ZM837.24 964.368C838.87 964.606 840.5 964.844 842.13 965.082C842.685 964.496 843.24 963.91 843.795 963.325C841.61 963.672 839.425 964.02 837.24 964.368ZM1510.23 963.318C1510.04 963.904 1509.85 964.49 1509.66 965.076C1508.21 964.958 1506.75 964.84 1505.3 964.722C1505.66 964.14 1506.03 963.559 1506.39 962.977C1507.67 963.091 1508.95 963.205 1510.23 963.318ZM848.207 964.728C849.509 964.84 850.812 964.952 852.115 965.064C852.99 964.779 853.866 964.494 854.741 964.21C853.522 963.927 852.303 963.644 851.084 963.361C850.125 963.817 849.166 964.273 848.207 964.728ZM1450.52 962.971C1448.69 962.266 1441.38 964.461 1447.97 965.021C1452.16 965.377 1450.8 963.078 1450.52 962.971ZM1460.39 962.269C1453.42 960.927 1458.64 967.738 1466.96 963.325C1458.59 963.93 1460.8 962.35 1460.39 962.269ZM1521.68 958.753C1521.86 958.757 1522 959.736 1523.4 959.772C1528.44 959.899 1535.1 960.286 1538.7 960.346C1547.37 960.491 1573.93 958.72 1577.03 961.555C1577.68 962.15 1576.19 963.929 1576.45 964.02C1577.22 964.276 1581.67 963.413 1580.84 964.722C1576.49 964.712 1572.13 964.702 1567.77 964.692C1568.84 963.768 1569.91 962.844 1570.98 961.921C1560.12 962.414 1563.71 962.357 1560.59 964.368C1558.75 963.589 1556.92 962.81 1555.08 962.031C1551.08 962.814 1547.08 963.597 1543.08 964.38C1543.98 963.797 1544.89 963.213 1545.8 962.629C1539.77 961.547 1541.44 962.257 1538.15 963.672C1538.14 963.089 1538.13 962.505 1538.13 961.921C1532.31 963.344 1531.17 961.594 1529.9 961.573C1527.29 961.539 1523.97 968.447 1514.02 961.573C1509.83 964.879 1509.92 958.153 1507.46 961.573C1500.36 957.85 1513.86 959.197 1520.25 959.321C1520.25 959.321 1520.25 959.321 1520.26 959.321C1520.74 959.331 1519.97 958.704 1521.68 958.753ZM1485.21 962.177C1489.51 959.142 1472.53 958.858 1478.15 963.239C1478.99 963.382 1479.82 963.524 1480.66 963.666C1482.18 963.17 1483.7 962.674 1485.22 962.177C1485.22 962.177 1485.22 962.177 1485.21 962.177ZM1325.67 960.163C1309.94 961.41 1318.88 963.156 1324.21 961.451C1325.27 961.113 1325.85 960.649 1325.67 960.163ZM1004.39 960.12C1004.16 960.484 1003.93 960.849 1003.7 961.213C1008.97 960.872 1019.17 962.277 1019.03 959.821C1014.15 959.921 1009.27 960.021 1004.39 960.12ZM1046.11 958.515C1044.98 958.367 1040.35 958.017 1040.91 958.936C1042.92 959.587 1044.92 960.238 1046.93 960.889C1047.86 960.482 1048.79 960.076 1049.73 959.669C1048.42 959.53 1046.42 958.554 1046.11 958.515Z" fill="#F6F5F3"/>
</svg>
